{"glyphs":{"0":{"ha":806,"x_min":0,"x_max":0,"o":"m 731 492 b 403 985 731 764 624 985 b 75 492 182 985 75 764 b 403 -14 75 219 182 -14 b 731 492 624 -14 731 219 z m 208 493 b 403 940 208 715 265 940 b 599 492 540 940 599 714 b 403 31 599 261 539 31 b 208 493 268 31 208 263 z "},"1":{"ha":447,"x_min":0,"x_max":0,"o":"m 53 829 l 199 874 l 199 0 l 319 0 l 319 985 l 288 985 l 43 858 z "},"2":{"ha":724,"x_min":0,"x_max":0,"o":"m 357 985 b 60 789 201 985 111 888 l 88 774 b 326 917 139 858 224 917 b 507 717 440 917 507 844 b 228 218 507 561 381 386 l 57 33 l 57 0 l 639 0 l 657 100 b 528 86 622 86 561 86 l 163 86 l 315 233 b 636 726 485 397 636 557 b 357 985 636 882 528 985 z "},"3":{"ha":728,"x_min":0,"x_max":0,"o":"m 625 972 l 122 972 l 104 871 b 214 885 131 885 188 885 l 510 885 l 242 569 l 244 536 l 286 536 b 529 285 439 536 529 433 b 310 40 529 124 432 40 b 64 182 207 40 104 94 l 38 167 b 349 -14 88 61 192 -14 b 651 283 519 -14 651 89 b 311 586 651 456 536 583 l 625 950 z "},"4":{"ha":731,"x_min":0,"x_max":0,"o":"m 36 203 l 424 203 l 424 0 l 543 0 l 543 203 l 686 203 l 686 290 l 543 290 l 543 975 l 515 975 l 36 257 z m 111 290 l 424 779 l 424 290 z "},"5":{"ha":694,"x_min":0,"x_max":0,"o":"m 304 40 b 65 164 207 40 125 86 l 40 146 b 333 -14 104 50 192 -14 b 632 286 528 -14 632 101 b 265 585 632 467 525 585 l 167 585 l 193 886 l 486 886 b 581 872 508 886 558 886 l 563 972 l 158 972 l 118 536 l 233 536 b 510 286 419 536 510 443 b 304 40 510 125 421 40 z "},"6":{"ha":771,"x_min":0,"x_max":0,"o":"m 460 942 b 611 888 510 942 569 929 l 633 910 b 442 985 588 958 521 985 b 79 450 260 985 79 850 b 397 -14 79 93 206 -14 b 697 296 593 -14 697 117 b 414 606 697 514 551 606 b 206 464 318 606 243 563 b 460 942 213 838 340 942 z m 390 558 b 568 292 499 558 568 468 b 396 29 568 129 514 29 b 207 351 289 29 219 106 b 390 558 225 513 317 558 z "},"7":{"ha":640,"x_min":0,"x_max":0,"o":"m 611 972 l 53 972 l 35 871 b 133 885 53 885 115 885 l 550 885 l 89 -1 l 240 -1 l 610 950 z "},"8":{"ha":800,"x_min":0,"x_max":0,"o":"m 671 751 b 400 985 671 899 568 985 b 129 751 233 985 129 899 b 296 539 129 633 194 565 b 72 267 157 510 72 415 b 401 -14 72 76 210 -14 b 728 265 592 -14 728 75 b 504 539 728 415 643 510 b 671 751 606 565 671 633 z m 201 265 b 401 517 201 415 279 517 b 599 267 522 517 599 419 b 400 31 599 113 522 31 b 201 265 279 31 201 114 z m 247 750 b 401 940 247 871 304 940 b 556 751 497 940 556 871 b 400 561 556 657 519 561 b 247 750 282 561 247 658 z "},"9":{"ha":776,"x_min":0,"x_max":0,"o":"m 285 32 b 142 85 236 32 182 44 l 118 63 b 317 -14 167 14 235 -14 b 696 521 496 -14 696 121 b 375 985 696 868 567 985 b 75 675 179 985 75 854 b 358 365 75 457 221 365 b 567 507 451 365 528 408 b 285 32 558 136 407 32 z m 381 413 b 204 679 274 413 204 503 b 376 942 204 842 258 942 b 564 618 483 942 553 865 b 381 413 546 457 451 413 z "},"Æ":{"ha":1225,"x_min":0,"x_max":0,"o":"m 574 0 l 1168 0 l 1168 44 l 703 44 l 703 475 l 976 475 l 976 519 l 703 519 l 703 928 l 1157 928 l 1157 972 l 563 972 l -17 0 l 46 0 l 200 261 l 574 261 z m 574 306 l 226 306 l 574 893 z "},"Ǽ":{"ha":1225,"x_min":0,"x_max":0,"o":"m 574 0 l 1168 0 l 1168 44 l 703 44 l 703 475 l 976 475 l 976 519 l 703 519 l 703 928 l 1157 928 l 1157 972 l 563 972 l -17 0 l 46 0 l 200 261 l 574 261 z m 574 306 l 226 306 l 574 893 z m 647 1011 l 836 1250 l 708 1250 l 617 1011 z "},"Á":{"ha":801,"x_min":0,"x_max":0,"o":"m 665 0 l 799 0 l 463 972 l 353 972 l 3 0 l 58 0 l 164 296 l 564 296 z m 368 869 l 547 346 l 182 346 z m 403 1042 l 592 1281 l 464 1281 l 372 1042 z "},"Ă":{"ha":801,"x_min":0,"x_max":0,"o":"m 665 0 l 799 0 l 463 972 l 353 972 l 3 0 l 58 0 l 164 296 l 564 296 z m 368 869 l 547 346 l 182 346 z m 543 1231 b 410 1119 543 1165 504 1119 b 276 1231 314 1119 276 1172 l 249 1231 b 410 1049 249 1118 304 1049 b 571 1231 515 1049 571 1118 z "},"Â":{"ha":801,"x_min":0,"x_max":0,"o":"m 665 0 l 799 0 l 463 972 l 353 972 l 3 0 l 58 0 l 164 296 l 564 296 z m 368 869 l 547 346 l 182 346 z m 371 1279 l 200 1040 l 232 1040 l 411 1203 l 590 1040 l 624 1040 l 453 1279 z "},"Ä":{"ha":801,"x_min":0,"x_max":0,"o":"m 665 0 l 799 0 l 463 972 l 353 972 l 3 0 l 58 0 l 164 296 l 564 296 z m 368 869 l 547 346 l 182 346 z m 221 1108 b 289 1042 221 1071 244 1042 b 357 1108 332 1042 357 1071 b 289 1179 357 1147 332 1179 b 221 1108 244 1179 221 1147 z m 464 1108 b 532 1042 464 1071 488 1042 b 599 1108 575 1042 599 1071 b 532 1179 599 1147 575 1179 b 464 1108 488 1179 464 1147 z "},"À":{"ha":801,"x_min":0,"x_max":0,"o":"m 665 0 l 799 0 l 463 972 l 353 972 l 3 0 l 58 0 l 164 296 l 564 296 z m 368 869 l 547 346 l 182 346 z m 443 1042 l 351 1281 l 224 1281 l 411 1042 z "},"Ā":{"ha":801,"x_min":0,"x_max":0,"o":"m 665 0 l 799 0 l 463 972 l 353 972 l 3 0 l 58 0 l 164 296 l 564 296 z m 368 869 l 547 346 l 182 346 z m 233 1044 l 586 1044 l 586 1086 l 233 1086 z "},"Ą":{"ha":801,"x_min":0,"x_max":0,"o":"m 665 0 l 715 0 b 560 -204 642 -60 560 -125 b 686 -308 560 -267 600 -308 b 832 -247 751 -308 793 -283 l 811 -222 b 725 -253 785 -243 753 -253 b 660 -194 681 -253 660 -229 b 758 0 660 -139 693 -67 l 799 0 l 463 972 l 353 972 l 3 0 l 58 0 l 164 296 l 564 296 z m 368 869 l 547 346 l 182 346 z "},"Å":{"ha":801,"x_min":0,"x_max":0,"o":"m 665 0 l 799 0 l 463 972 l 353 972 l 3 0 l 58 0 l 164 296 l 564 296 z m 368 869 l 547 346 l 182 346 z m 579 1161 b 410 1278 579 1225 526 1278 b 242 1161 294 1278 242 1226 b 410 1038 242 1092 294 1038 b 579 1161 526 1038 579 1092 z m 332 1161 b 410 1249 332 1214 360 1249 b 489 1161 458 1249 489 1214 b 410 1068 489 1106 458 1068 b 332 1161 360 1068 332 1106 z "},"Ã":{"ha":801,"x_min":0,"x_max":0,"o":"m 665 0 l 799 0 l 463 972 l 353 972 l 3 0 l 58 0 l 164 296 l 564 296 z m 368 869 l 547 346 l 182 346 z m 557 1186 b 518 1117 557 1131 543 1117 b 313 1186 468 1117 382 1186 b 229 1042 253 1186 229 1136 l 258 1042 b 304 1111 258 1092 278 1111 b 511 1042 350 1111 449 1042 b 588 1186 564 1042 588 1083 z "},"B":{"ha":842,"x_min":0,"x_max":0,"o":"m 129 0 l 400 0 b 774 274 656 0 774 110 b 544 528 774 451 651 517 b 722 729 638 544 722 610 b 383 972 722 871 622 972 l 129 972 z m 385 500 b 638 275 551 500 638 426 b 392 43 638 135 558 43 l 257 43 l 257 500 z m 371 929 b 586 732 526 929 586 854 b 383 544 586 613 524 544 l 257 544 l 257 929 z "},"C":{"ha":864,"x_min":0,"x_max":0,"o":"m 208 486 b 554 932 208 769 354 932 b 788 840 644 932 711 906 l 810 863 b 515 985 729 949 644 985 b 74 485 258 985 74 799 b 513 -14 74 171 258 -14 b 822 107 636 -14 732 18 l 800 131 b 558 39 726 71 661 39 b 208 486 354 39 208 201 z "},"Ć":{"ha":864,"x_min":0,"x_max":0,"o":"m 208 486 b 554 932 208 769 354 932 b 788 840 644 932 711 906 l 810 863 b 515 985 729 949 644 985 b 74 485 258 985 74 799 b 513 -14 74 171 258 -14 b 822 107 636 -14 732 18 l 800 131 b 558 39 726 71 661 39 b 208 486 354 39 208 201 z m 508 1042 l 697 1281 l 569 1281 l 478 1042 z "},"Č":{"ha":864,"x_min":0,"x_max":0,"o":"m 208 486 b 554 932 208 769 354 932 b 788 840 644 932 711 906 l 810 863 b 515 985 729 949 644 985 b 74 485 258 985 74 799 b 513 -14 74 171 258 -14 b 822 107 636 -14 732 18 l 800 131 b 558 39 726 71 661 39 b 208 486 354 39 208 201 z m 557 1042 l 728 1281 l 694 1281 l 515 1122 l 336 1281 l 304 1281 l 475 1042 z "},"Ç":{"ha":864,"x_min":0,"x_max":0,"o":"m 449 -128 l 490 -128 b 571 -200 538 -128 571 -149 b 483 -274 571 -250 536 -274 b 383 -250 446 -274 411 -262 l 374 -283 b 506 -314 399 -296 443 -314 b 663 -194 608 -314 663 -275 b 531 -87 663 -117 597 -87 b 500 -89 518 -87 506 -87 l 525 -14 b 822 107 643 -11 735 21 l 800 131 b 558 39 726 71 661 39 b 208 486 354 39 208 201 b 554 932 208 769 354 932 b 788 840 644 932 711 906 l 810 863 b 515 985 729 949 644 985 b 74 485 258 985 74 799 b 486 -12 74 182 246 0 z "},"Ĉ":{"ha":864,"x_min":0,"x_max":0,"o":"m 208 486 b 554 932 208 769 354 932 b 788 840 644 932 711 906 l 810 863 b 515 985 729 949 644 985 b 74 485 258 985 74 799 b 513 -14 74 171 258 -14 b 822 107 636 -14 732 18 l 800 131 b 558 39 726 71 661 39 b 208 486 354 39 208 201 z m 476 1279 l 306 1040 l 338 1040 l 517 1203 l 696 1040 l 729 1040 l 558 1279 z "},"Ċ":{"ha":864,"x_min":0,"x_max":0,"o":"m 208 486 b 554 932 208 769 354 932 b 788 840 644 932 711 906 l 810 863 b 515 985 729 949 644 985 b 74 485 258 985 74 799 b 513 -14 74 171 258 -14 b 822 107 636 -14 732 18 l 800 131 b 558 39 726 71 661 39 b 208 486 354 39 208 201 z m 449 1101 b 515 1039 449 1065 472 1039 b 582 1101 558 1039 582 1065 b 515 1171 582 1139 560 1171 b 449 1101 472 1171 449 1139 z "},"D":{"ha":947,"x_min":0,"x_max":0,"o":"m 129 0 l 336 0 b 875 483 688 0 875 199 b 336 972 875 763 693 972 l 129 972 z m 342 928 b 735 485 617 928 735 735 b 342 44 735 224 625 44 l 257 44 l 257 928 z "},"Ď":{"ha":947,"x_min":0,"x_max":0,"o":"m 129 0 l 336 0 b 875 483 688 0 875 199 b 336 972 875 763 693 972 l 129 972 z m 342 928 b 735 485 617 928 735 735 b 342 44 735 224 625 44 l 257 44 l 257 928 z m 479 1042 l 650 1281 l 617 1281 l 438 1122 l 258 1281 l 226 1281 l 397 1042 z "},"Đ":{"ha":960,"x_min":0,"x_max":0,"o":"m 142 0 l 349 0 b 888 483 700 0 888 199 b 349 972 888 763 706 972 l 142 972 l 142 497 l 32 497 l 32 453 l 142 453 z m 453 453 l 453 497 l 269 497 l 269 928 l 354 928 b 747 485 629 928 747 735 b 354 44 747 224 638 44 l 269 44 l 269 453 z "},"E":{"ha":758,"x_min":0,"x_max":0,"o":"m 129 0 l 697 0 l 697 44 l 257 44 l 257 476 l 599 476 l 599 522 l 257 522 l 257 928 l 683 928 l 683 972 l 129 972 z "},"É":{"ha":758,"x_min":0,"x_max":0,"o":"m 129 0 l 697 0 l 697 44 l 257 44 l 257 476 l 599 476 l 599 522 l 257 522 l 257 928 l 683 928 l 683 972 l 129 972 z m 408 1042 l 597 1281 l 469 1281 l 378 1042 z "},"Ĕ":{"ha":758,"x_min":0,"x_max":0,"o":"m 129 0 l 697 0 l 697 44 l 257 44 l 257 476 l 599 476 l 599 522 l 257 522 l 257 928 l 683 928 l 683 972 l 129 972 z m 549 1231 b 415 1119 549 1165 510 1119 b 282 1231 319 1119 282 1172 l 254 1231 b 415 1049 254 1118 310 1049 b 576 1231 521 1049 576 1118 z "},"Ě":{"ha":758,"x_min":0,"x_max":0,"o":"m 129 0 l 697 0 l 697 44 l 257 44 l 257 476 l 599 476 l 599 522 l 257 522 l 257 928 l 683 928 l 683 972 l 129 972 z m 457 1042 l 628 1281 l 594 1281 l 415 1122 l 236 1281 l 204 1281 l 375 1042 z "},"Ê":{"ha":758,"x_min":0,"x_max":0,"o":"m 129 0 l 697 0 l 697 44 l 257 44 l 257 476 l 599 476 l 599 522 l 257 522 l 257 928 l 683 928 l 683 972 l 129 972 z m 376 1279 l 206 1040 l 238 1040 l 417 1203 l 596 1040 l 629 1040 l 458 1279 z "},"Ë":{"ha":758,"x_min":0,"x_max":0,"o":"m 129 0 l 697 0 l 697 44 l 257 44 l 257 476 l 599 476 l 599 522 l 257 522 l 257 928 l 683 928 l 683 972 l 129 972 z m 225 1108 b 293 1042 225 1071 249 1042 b 361 1108 336 1042 361 1071 b 293 1179 361 1147 336 1179 b 225 1108 249 1179 225 1147 z m 468 1108 b 536 1042 468 1071 492 1042 b 603 1108 579 1042 603 1071 b 536 1179 603 1147 579 1179 b 468 1108 492 1179 468 1147 z "},"Ė":{"ha":758,"x_min":0,"x_max":0,"o":"m 129 0 l 697 0 l 697 44 l 257 44 l 257 476 l 599 476 l 599 522 l 257 522 l 257 928 l 683 928 l 683 972 l 129 972 z m 349 1101 b 415 1039 349 1065 372 1039 b 482 1101 458 1039 482 1065 b 415 1171 482 1139 460 1171 b 349 1101 372 1171 349 1139 z "},"È":{"ha":758,"x_min":0,"x_max":0,"o":"m 129 0 l 697 0 l 697 44 l 257 44 l 257 476 l 599 476 l 599 522 l 257 522 l 257 928 l 683 928 l 683 972 l 129 972 z m 449 1042 l 357 1281 l 229 1281 l 417 1042 z "},"Ē":{"ha":758,"x_min":0,"x_max":0,"o":"m 129 0 l 697 0 l 697 44 l 257 44 l 257 476 l 599 476 l 599 522 l 257 522 l 257 928 l 683 928 l 683 972 l 129 972 z m 239 1044 l 592 1044 l 592 1086 l 239 1086 z "},"Ę":{"ha":786,"x_min":0,"x_max":0,"o":"m 129 0 l 676 0 b 521 -204 603 -60 521 -125 b 647 -308 521 -267 561 -308 b 793 -247 713 -308 754 -283 l 772 -222 b 686 -253 746 -243 714 -253 b 621 -194 642 -253 621 -229 b 719 0 621 -139 654 -67 l 721 0 l 721 44 l 257 44 l 257 475 l 533 475 l 533 519 l 257 519 l 257 928 l 708 928 l 708 972 l 129 972 z "},"Ð":{"ha":956,"x_min":0,"x_max":0,"o":"m 136 0 l 343 0 b 882 483 694 0 882 199 b 343 972 882 763 700 972 l 136 972 l 136 467 l 47 467 l 47 422 l 136 422 z m 468 422 l 468 467 l 264 467 l 264 928 l 349 928 b 742 485 624 928 742 735 b 349 44 742 224 632 44 l 264 44 l 264 422 z "},"€":{"ha":954,"x_min":0,"x_max":0,"o":"m 560 400 l 593 449 l 294 449 l 294 486 b 296 533 294 501 294 518 l 658 533 l 692 582 l 300 582 b 640 932 329 806 464 932 b 874 840 731 932 797 906 l 896 863 b 601 985 815 949 731 985 b 165 582 372 985 200 836 l 83 582 l 50 533 l 161 533 b 160 485 160 517 160 501 l 160 449 l 78 449 l 44 400 l 164 400 b 599 -14 194 138 368 -14 b 908 107 722 -14 818 18 l 886 131 b 644 39 813 71 747 39 b 299 400 461 39 325 168 z "},"F":{"ha":717,"x_min":0,"x_max":0,"o":"m 129 0 l 257 0 l 257 444 l 569 444 l 569 490 l 257 490 l 257 928 l 683 928 l 683 972 l 129 972 z "},"G":{"ha":957,"x_min":0,"x_max":0,"o":"m 551 -14 b 868 58 678 -14 797 18 l 868 432 l 525 432 l 525 388 l 740 388 l 740 63 b 556 35 683 44 619 35 b 210 481 338 35 210 204 b 561 933 210 792 369 933 b 842 825 697 933 782 890 l 865 846 b 549 985 808 913 736 985 b 72 486 285 985 72 824 b 551 -14 72 181 240 -14 z "},"Ğ":{"ha":957,"x_min":0,"x_max":0,"o":"m 551 -14 b 868 58 678 -14 797 18 l 868 432 l 525 432 l 525 388 l 740 388 l 740 63 b 556 35 683 44 619 35 b 210 481 338 35 210 204 b 561 933 210 792 369 933 b 842 825 697 933 782 890 l 865 846 b 549 985 808 913 736 985 b 72 486 285 985 72 824 b 551 -14 72 181 240 -14 z m 692 1231 b 558 1119 692 1165 653 1119 b 425 1231 463 1119 425 1172 l 397 1231 b 558 1049 397 1118 453 1049 b 719 1231 664 1049 719 1118 z "},"Ĝ":{"ha":957,"x_min":0,"x_max":0,"o":"m 551 -14 b 868 58 678 -14 797 18 l 868 432 l 525 432 l 525 388 l 740 388 l 740 63 b 556 35 683 44 619 35 b 210 481 338 35 210 204 b 561 933 210 792 369 933 b 842 825 697 933 782 890 l 865 846 b 549 985 808 913 736 985 b 72 486 285 985 72 824 b 551 -14 72 181 240 -14 z m 521 1279 l 350 1040 l 382 1040 l 561 1203 l 740 1040 l 774 1040 l 603 1279 z "},"Ģ":{"ha":957,"x_min":0,"x_max":0,"o":"m 551 -14 b 868 58 678 -14 797 18 l 868 432 l 525 432 l 525 388 l 740 388 l 740 63 b 556 35 683 44 619 35 b 210 481 338 35 210 204 b 561 933 210 792 369 933 b 842 825 697 933 782 890 l 865 846 b 549 985 808 913 736 985 b 72 486 285 985 72 824 b 551 -14 72 181 240 -14 z m 507 -150 b 551 -203 507 -186 526 -203 b 583 -189 563 -203 575 -199 b 485 -319 583 -218 547 -276 l 494 -333 b 622 -160 561 -293 622 -235 b 564 -87 622 -110 596 -87 b 507 -150 532 -87 507 -108 z "},"Ġ":{"ha":957,"x_min":0,"x_max":0,"o":"m 551 -14 b 868 58 678 -14 797 18 l 868 432 l 525 432 l 525 388 l 740 388 l 740 63 b 556 35 683 44 619 35 b 210 481 338 35 210 204 b 561 933 210 792 369 933 b 842 825 697 933 782 890 l 865 846 b 549 985 808 913 736 985 b 72 486 285 985 72 824 b 551 -14 72 181 240 -14 z m 492 1101 b 558 1039 492 1065 515 1039 b 625 1101 601 1039 625 1065 b 558 1171 625 1139 603 1171 b 492 1101 515 1171 492 1139 z "},"H":{"ha":953,"x_min":0,"x_max":0,"o":"m 257 0 l 257 481 l 696 481 l 696 0 l 825 0 l 825 972 l 696 972 l 696 526 l 257 526 l 257 972 l 129 972 l 129 0 z "},"Ĥ":{"ha":953,"x_min":0,"x_max":0,"o":"m 257 0 l 257 481 l 696 481 l 696 0 l 825 0 l 825 972 l 696 972 l 696 526 l 257 526 l 257 972 l 129 972 l 129 0 z m 439 1250 l 268 1011 l 300 1011 l 479 1174 l 658 1011 l 692 1011 l 521 1250 z "},"I":{"ha":386,"x_min":0,"x_max":0,"o":"m 129 0 l 257 0 l 257 972 l 129 972 z "},"Ĳ":{"ha":786,"x_min":0,"x_max":0,"o":"m 129 0 l 257 0 l 257 972 l 129 972 z m 328 -290 b 658 163 506 -254 658 -133 l 658 972 l 529 972 l 529 160 b 322 -258 529 -118 449 -222 z "},"Í":{"ha":386,"x_min":0,"x_max":0,"o":"m 129 0 l 257 0 l 257 972 l 129 972 z m 182 1042 l 371 1281 l 243 1281 l 151 1042 z "},"Ĭ":{"ha":386,"x_min":0,"x_max":0,"o":"m 129 0 l 257 0 l 257 972 l 129 972 z m 322 1231 b 189 1119 322 1165 283 1119 b 56 1231 93 1119 56 1172 l 28 1231 b 189 1049 28 1118 83 1049 b 350 1231 294 1049 350 1118 z "},"Î":{"ha":386,"x_min":0,"x_max":0,"o":"m 129 0 l 257 0 l 257 972 l 129 972 z m 150 1279 l -21 1040 l 11 1040 l 190 1203 l 369 1040 l 403 1040 l 232 1279 z "},"Ï":{"ha":386,"x_min":0,"x_max":0,"o":"m 129 0 l 257 0 l 257 972 l 129 972 z m 0 1108 b 68 1042 0 1071 24 1042 b 136 1108 111 1042 136 1071 b 68 1179 136 1147 111 1179 b 0 1108 24 1179 0 1147 z m 243 1108 b 311 1042 243 1071 267 1042 b 378 1108 354 1042 378 1071 b 311 1179 378 1147 354 1179 b 243 1108 267 1179 243 1147 z "},"İ":{"ha":386,"x_min":0,"x_max":0,"o":"m 129 0 l 257 0 l 257 972 l 129 972 z m 122 1101 b 189 1039 122 1065 146 1039 b 256 1101 232 1039 256 1065 b 189 1171 256 1139 233 1171 b 122 1101 146 1171 122 1139 z "},"Ì":{"ha":386,"x_min":0,"x_max":0,"o":"m 129 0 l 257 0 l 257 972 l 129 972 z m 222 1042 l 131 1281 l 3 1281 l 190 1042 z "},"Ī":{"ha":386,"x_min":0,"x_max":0,"o":"m 129 0 l 257 0 l 257 972 l 129 972 z m 13 1044 l 365 1044 l 365 1086 l 13 1086 z "},"Į":{"ha":379,"x_min":0,"x_max":0,"o":"m 122 0 l 192 0 b 36 -204 118 -60 36 -125 b 163 -308 36 -267 76 -308 b 308 -247 228 -308 269 -283 l 288 -222 b 201 -253 261 -243 229 -253 b 136 -194 157 -253 136 -229 b 235 0 136 -139 169 -67 l 250 0 l 250 972 l 122 972 z "},"Ĩ":{"ha":386,"x_min":0,"x_max":0,"o":"m 129 0 l 257 0 l 257 972 l 129 972 z m 336 1186 b 297 1117 336 1131 322 1117 b 92 1186 247 1117 161 1186 b 8 1042 32 1186 8 1136 l 38 1042 b 83 1111 38 1092 57 1111 b 290 1042 129 1111 228 1042 b 367 1186 343 1042 367 1083 z "},"J":{"ha":400,"x_min":0,"x_max":0,"o":"m -58 -290 b 272 163 119 -254 272 -133 l 272 972 l 143 972 l 143 160 b -64 -258 143 -118 63 -222 z "},"Ĵ":{"ha":374,"x_min":0,"x_max":0,"o":"m -58 -290 b 272 163 119 -254 272 -133 l 272 972 l 143 972 l 143 160 b -64 -258 143 -118 63 -222 z m 169 1319 l -1 1081 l 31 1081 l 210 1243 l 389 1081 l 422 1081 l 251 1319 z "},"K":{"ha":840,"x_min":0,"x_max":0,"o":"m 731 972 l 257 465 l 257 972 l 129 972 l 129 0 l 257 0 l 257 401 l 365 518 l 686 0 l 836 0 l 456 615 l 788 972 z "},"Ķ":{"ha":840,"x_min":0,"x_max":0,"o":"m 731 972 l 257 465 l 257 972 l 129 972 l 129 0 l 257 0 l 257 401 l 365 518 l 686 0 l 836 0 l 456 615 l 788 972 z m 399 -150 b 443 -203 399 -186 418 -203 b 475 -189 454 -203 467 -199 b 376 -319 475 -218 439 -276 l 386 -333 b 514 -160 453 -293 514 -235 b 456 -87 514 -110 488 -87 b 399 -150 424 -87 399 -108 z "},"L":{"ha":701,"x_min":0,"x_max":0,"o":"m 129 0 l 671 0 l 671 44 l 257 44 l 257 972 l 129 972 z "},"Ĺ":{"ha":746,"x_min":0,"x_max":0,"o":"m 129 0 l 715 0 l 715 44 l 257 44 l 257 972 l 129 972 z m 213 1082 l 401 1321 l 274 1321 l 182 1082 z "},"Ľ":{"ha":771,"x_min":0,"x_max":0,"o":"m 129 0 l 715 0 l 715 44 l 257 44 l 257 972 l 129 972 z m 542 939 b 601 868 542 890 568 868 b 642 886 617 868 631 874 b 517 726 642 839 596 768 l 528 707 b 696 929 610 746 696 819 b 618 1021 696 993 663 1021 b 542 939 575 1021 542 992 z "},"Ļ":{"ha":746,"x_min":0,"x_max":0,"o":"m 129 0 l 715 0 l 715 44 l 257 44 l 257 972 l 129 972 z m 354 -150 b 399 -203 354 -186 374 -203 b 431 -189 410 -203 422 -199 b 332 -319 431 -218 394 -276 l 342 -333 b 469 -160 408 -293 469 -235 b 411 -87 469 -110 443 -87 b 354 -150 379 -87 354 -108 z "},"Ŀ":{"ha":750,"x_min":0,"x_max":0,"o":"m 129 0 l 715 0 l 715 44 l 257 44 l 257 972 l 129 972 z m 425 419 b 503 344 425 374 453 344 b 579 419 550 344 579 374 b 503 497 579 464 550 497 b 425 419 453 497 425 464 z "},"Ł":{"ha":776,"x_min":0,"x_max":0,"o":"m 46 218 l 174 297 l 174 0 l 760 0 l 760 44 l 303 44 l 303 379 l 571 547 l 571 604 l 303 435 l 303 972 l 174 972 l 174 354 l 46 274 z "},"M":{"ha":1256,"x_min":0,"x_max":0,"o":"m 999 0 l 1126 0 l 1057 972 l 921 972 l 625 97 l 324 972 l 186 972 l 129 0 l 182 0 l 238 849 l 533 0 l 644 0 l 931 838 z "},"N":{"ha":932,"x_min":0,"x_max":0,"o":"m 131 972 l 131 0 l 185 0 l 185 851 b 276 674 207 792 239 732 l 707 0 l 804 0 l 804 972 l 750 972 l 750 150 b 696 263 733 190 715 229 l 247 972 z "},"Ń":{"ha":932,"x_min":0,"x_max":0,"o":"m 131 972 l 131 0 l 185 0 l 185 851 b 276 674 207 792 239 732 l 707 0 l 804 0 l 804 972 l 750 972 l 750 150 b 696 263 733 190 715 229 l 247 972 z m 478 1042 l 667 1281 l 539 1281 l 447 1042 z "},"Ň":{"ha":932,"x_min":0,"x_max":0,"o":"m 131 972 l 131 0 l 185 0 l 185 851 b 276 674 207 792 239 732 l 707 0 l 804 0 l 804 972 l 750 972 l 750 150 b 696 263 733 190 715 229 l 247 972 z m 526 1042 l 697 1281 l 664 1281 l 485 1122 l 306 1281 l 274 1281 l 444 1042 z "},"Ņ":{"ha":932,"x_min":0,"x_max":0,"o":"m 131 972 l 131 0 l 185 0 l 185 851 b 276 674 207 792 239 732 l 707 0 l 804 0 l 804 972 l 750 972 l 750 150 b 696 263 733 190 715 229 l 247 972 z m 419 -150 b 464 -203 419 -186 439 -203 b 496 -189 475 -203 488 -199 b 397 -319 496 -218 460 -276 l 407 -333 b 535 -160 474 -293 535 -235 b 476 -87 535 -110 508 -87 b 419 -150 444 -87 419 -108 z "},"Ñ":{"ha":932,"x_min":0,"x_max":0,"o":"m 131 972 l 131 0 l 185 0 l 185 851 b 276 674 207 792 239 732 l 707 0 l 804 0 l 804 972 l 750 972 l 750 150 b 696 263 733 190 715 229 l 247 972 z m 632 1186 b 593 1117 632 1131 618 1117 b 388 1186 543 1117 457 1186 b 304 1042 328 1186 304 1136 l 333 1042 b 379 1111 333 1092 353 1111 b 586 1042 425 1111 524 1042 b 663 1186 639 1042 663 1083 z "},"O":{"ha":1013,"x_min":0,"x_max":0,"o":"m 940 485 b 506 985 940 788 775 985 b 72 486 236 985 72 789 b 506 -14 72 182 236 -14 b 940 485 775 -14 940 182 z m 210 488 b 506 940 210 757 301 940 b 803 485 711 940 803 754 b 506 31 803 207 711 31 b 210 488 301 31 210 204 z "},"Œ":{"ha":1261,"x_min":0,"x_max":0,"o":"m 71 486 b 631 0 71 190 285 0 l 1201 0 l 1201 44 l 760 44 l 760 475 l 1081 475 l 1081 519 l 760 519 l 760 928 l 1188 928 l 1188 972 l 629 972 b 71 486 283 971 71 779 z m 208 488 b 629 928 208 735 353 926 l 629 44 b 208 488 353 44 208 225 z "},"Ó":{"ha":1013,"x_min":0,"x_max":0,"o":"m 940 485 b 506 985 940 788 775 985 b 72 486 236 985 72 789 b 506 -14 72 182 236 -14 b 940 485 775 -14 940 182 z m 210 488 b 506 940 210 757 301 940 b 803 485 711 940 803 754 b 506 31 803 207 711 31 b 210 488 301 31 210 204 z m 499 1042 l 688 1281 l 560 1281 l 468 1042 z "},"Ŏ":{"ha":1013,"x_min":0,"x_max":0,"o":"m 940 485 b 506 985 940 788 775 985 b 72 486 236 985 72 789 b 506 -14 72 182 236 -14 b 940 485 775 -14 940 182 z m 210 488 b 506 940 210 757 301 940 b 803 485 711 940 803 754 b 506 31 803 207 711 31 b 210 488 301 31 210 204 z m 639 1231 b 506 1119 639 1165 600 1119 b 372 1231 410 1119 372 1172 l 344 1231 b 506 1049 344 1118 400 1049 b 667 1231 611 1049 667 1118 z "},"Ô":{"ha":1013,"x_min":0,"x_max":0,"o":"m 940 485 b 506 985 940 788 775 985 b 72 486 236 985 72 789 b 506 -14 72 182 236 -14 b 940 485 775 -14 940 182 z m 210 488 b 506 940 210 757 301 940 b 803 485 711 940 803 754 b 506 31 803 207 711 31 b 210 488 301 31 210 204 z m 467 1279 l 296 1040 l 328 1040 l 507 1203 l 686 1040 l 719 1040 l 549 1279 z "},"Ö":{"ha":1013,"x_min":0,"x_max":0,"o":"m 940 485 b 506 985 940 788 775 985 b 72 486 236 985 72 789 b 506 -14 72 182 236 -14 b 940 485 775 -14 940 182 z m 210 488 b 506 940 210 757 301 940 b 803 485 711 940 803 754 b 506 31 803 207 711 31 b 210 488 301 31 210 204 z m 317 1108 b 385 1042 317 1071 340 1042 b 453 1108 428 1042 453 1071 b 385 1179 453 1147 428 1179 b 317 1108 340 1179 317 1147 z m 560 1108 b 628 1042 560 1071 583 1042 b 694 1108 671 1042 694 1071 b 628 1179 694 1147 671 1179 b 560 1108 583 1179 560 1147 z "},"Ò":{"ha":1013,"x_min":0,"x_max":0,"o":"m 940 485 b 506 985 940 788 775 985 b 72 486 236 985 72 789 b 506 -14 72 182 236 -14 b 940 485 775 -14 940 182 z m 210 488 b 506 940 210 757 301 940 b 803 485 711 940 803 754 b 506 31 803 207 711 31 b 210 488 301 31 210 204 z m 540 1042 l 449 1281 l 321 1281 l 508 1042 z "},"Ő":{"ha":1013,"x_min":0,"x_max":0,"o":"m 940 485 b 506 985 940 788 775 985 b 72 486 236 985 72 789 b 506 -14 72 182 236 -14 b 940 485 775 -14 940 182 z m 210 488 b 506 940 210 757 301 940 b 803 485 711 940 803 754 b 506 31 803 207 711 31 b 210 488 301 31 210 204 z m 413 1040 l 614 1279 l 481 1279 l 381 1040 z m 622 1040 l 825 1279 l 690 1279 l 592 1040 z "},"Ō":{"ha":1013,"x_min":0,"x_max":0,"o":"m 940 485 b 506 985 940 788 775 985 b 72 486 236 985 72 789 b 506 -14 72 182 236 -14 b 940 485 775 -14 940 182 z m 210 488 b 506 940 210 757 301 940 b 803 485 711 940 803 754 b 506 31 803 207 711 31 b 210 488 301 31 210 204 z m 329 1044 l 682 1044 l 682 1086 l 329 1086 z "},"Ø":{"ha":1018,"x_min":0,"x_max":0,"o":"m 214 -67 l 282 43 b 506 -14 344 6 419 -14 b 940 485 775 -14 940 182 b 797 875 940 653 889 788 l 892 1026 l 808 1026 l 742 919 b 506 985 676 961 597 985 b 72 486 236 985 72 789 b 225 83 72 310 126 171 l 132 -67 z m 210 488 b 506 940 210 757 301 940 b 701 854 589 940 654 908 l 274 164 b 210 488 231 242 210 353 z m 803 485 b 506 31 803 207 711 31 b 319 103 426 31 365 56 l 744 789 b 803 485 783 710 803 606 z "},"Ǿ":{"ha":1029,"x_min":0,"x_max":0,"o":"m 196 -67 l 271 56 b 515 -14 338 10 419 -14 b 950 485 785 -14 950 182 b 790 892 950 663 893 806 l 874 1026 l 790 1026 l 732 932 b 515 985 671 967 597 985 b 82 486 246 985 82 789 b 217 100 82 321 129 188 l 114 -67 z m 813 485 b 515 31 813 207 721 31 b 313 121 426 31 360 63 l 742 813 b 813 485 790 733 813 618 z m 219 488 b 515 940 219 757 311 940 b 694 872 589 940 649 915 l 271 188 b 219 488 236 264 219 365 z m 524 1042 l 713 1281 l 585 1281 l 493 1042 z "},"Õ":{"ha":1013,"x_min":0,"x_max":0,"o":"m 940 485 b 506 985 940 788 775 985 b 72 486 236 985 72 789 b 506 -14 72 182 236 -14 b 940 485 775 -14 940 182 z m 210 488 b 506 940 210 757 301 940 b 803 485 711 940 803 754 b 506 31 803 207 711 31 b 210 488 301 31 210 204 z m 654 1186 b 615 1117 654 1131 640 1117 b 410 1186 565 1117 479 1186 b 326 1042 350 1186 326 1136 l 356 1042 b 401 1111 356 1092 375 1111 b 608 1042 447 1111 546 1042 b 685 1186 661 1042 685 1083 z "},"P":{"ha":804,"x_min":0,"x_max":0,"o":"m 129 0 l 257 0 l 257 400 l 368 400 b 757 688 615 400 757 478 b 368 972 757 886 611 972 l 129 972 z m 368 928 b 618 689 529 928 618 863 b 368 444 618 504 529 444 l 257 444 l 257 928 z "},"Q":{"ha":1015,"x_min":0,"x_max":0,"o":"m 1067 -157 b 626 1 949 -157 775 -47 b 940 485 824 51 940 231 b 506 985 940 788 775 985 b 72 486 236 985 72 789 b 506 -14 72 182 236 -14 b 1039 -251 615 -14 856 -251 b 1228 -83 1131 -251 1189 -186 l 1200 -68 b 1067 -157 1165 -126 1121 -157 z m 206 490 b 506 940 206 765 311 940 b 807 488 701 940 807 763 b 506 31 807 206 701 31 b 206 490 311 31 206 203 z "},"R":{"ha":829,"x_min":0,"x_max":0,"o":"m 129 0 l 257 0 l 257 438 l 368 438 l 653 0 l 801 0 l 503 447 b 739 700 651 475 739 557 b 379 972 739 888 603 972 l 129 972 z m 364 928 b 600 697 524 928 600 846 b 363 483 600 554 522 483 l 257 483 l 257 928 z "},"Ŕ":{"ha":829,"x_min":0,"x_max":0,"o":"m 129 0 l 257 0 l 257 438 l 368 438 l 653 0 l 801 0 l 503 447 b 739 700 651 475 739 557 b 379 972 739 888 603 972 l 129 972 z m 364 928 b 600 697 524 928 600 846 b 363 483 600 554 522 483 l 257 483 l 257 928 z m 399 1042 l 588 1281 l 460 1281 l 368 1042 z "},"Ř":{"ha":829,"x_min":0,"x_max":0,"o":"m 129 0 l 257 0 l 257 438 l 368 438 l 653 0 l 801 0 l 503 447 b 739 700 651 475 739 557 b 379 972 739 888 603 972 l 129 972 z m 364 928 b 600 697 524 928 600 846 b 363 483 600 554 522 483 l 257 483 l 257 928 z m 447 1042 l 618 1281 l 585 1281 l 406 1122 l 226 1281 l 194 1281 l 365 1042 z "},"Ŗ":{"ha":829,"x_min":0,"x_max":0,"o":"m 129 0 l 257 0 l 257 438 l 368 438 l 653 0 l 801 0 l 503 447 b 739 700 651 475 739 557 b 379 972 739 888 603 972 l 129 972 z m 364 928 b 600 697 524 928 600 846 b 363 483 600 554 522 483 l 257 483 l 257 928 z m 368 -150 b 413 -203 368 -186 388 -203 b 444 -189 424 -203 436 -199 b 346 -319 444 -218 408 -276 l 356 -333 b 483 -160 422 -293 483 -235 b 425 -87 483 -110 457 -87 b 368 -150 393 -87 368 -108 z "},"S":{"ha":707,"x_min":0,"x_max":0,"o":"m 376 936 b 590 847 463 936 532 904 l 614 869 b 369 985 557 929 486 985 b 86 740 192 985 86 892 b 539 217 86 443 539 489 b 336 38 539 111 458 38 b 69 156 224 38 125 99 l 47 132 b 356 -14 107 67 207 -14 b 644 249 510 -14 644 81 b 194 768 644 594 194 539 b 376 936 194 874 268 936 z "},"Ŝ":{"ha":707,"x_min":0,"x_max":0,"o":"m 376 936 b 590 847 463 936 532 904 l 614 869 b 369 985 557 929 486 985 b 86 740 192 985 86 892 b 539 217 86 443 539 489 b 336 38 539 111 458 38 b 69 156 224 38 125 99 l 47 132 b 356 -14 107 67 207 -14 b 644 249 510 -14 644 81 b 194 768 644 594 194 539 b 376 936 194 874 268 936 z m 361 1279 l 190 1040 l 222 1040 l 401 1203 l 581 1040 l 614 1040 l 443 1279 z "},"Ș":{"ha":707,"x_min":0,"x_max":0,"o":"m 376 936 b 590 847 463 936 532 904 l 614 869 b 369 985 557 929 486 985 b 86 740 192 985 86 892 b 539 217 86 443 539 489 b 336 38 539 111 458 38 b 69 156 224 38 125 99 l 47 132 b 356 -14 107 67 207 -14 b 644 249 510 -14 644 81 b 194 768 644 594 194 539 b 376 936 194 874 268 936 z m 303 -150 b 347 -203 303 -186 322 -203 b 379 -189 358 -203 371 -199 b 281 -319 379 -218 343 -276 l 290 -333 b 418 -160 357 -293 418 -235 b 360 -87 418 -110 392 -87 b 303 -150 328 -87 303 -108 z "},"T":{"ha":735,"x_min":0,"x_max":0,"o":"m 308 0 l 436 0 l 436 928 l 697 928 l 697 972 l 38 972 l 38 928 l 308 928 z "},"Ŧ":{"ha":735,"x_min":0,"x_max":0,"o":"m 196 664 l 308 664 l 308 0 l 436 0 l 436 664 l 549 664 l 549 706 l 436 706 l 436 928 l 697 928 l 697 972 l 38 972 l 38 928 l 308 928 l 308 706 l 196 706 z "},"Ť":{"ha":735,"x_min":0,"x_max":0,"o":"m 308 0 l 436 0 l 436 928 l 697 928 l 697 972 l 38 972 l 38 928 l 308 928 z m 411 1039 l 582 1278 l 549 1278 l 369 1119 l 190 1278 l 158 1278 l 329 1039 z "},"Ţ":{"ha":735,"x_min":0,"x_max":0,"o":"m 308 0 l 436 0 l 436 928 l 697 928 l 697 972 l 38 972 l 38 928 l 308 928 z m 318 -150 b 363 -203 318 -186 338 -203 b 394 -189 374 -203 386 -199 b 296 -319 394 -218 358 -276 l 306 -333 b 433 -160 372 -293 433 -235 b 375 -87 433 -110 407 -87 b 318 -150 343 -87 318 -108 z "},"Þ":{"ha":807,"x_min":0,"x_max":0,"o":"m 749 328 b 442 679 749 508 653 679 b 253 619 365 679 299 664 l 253 904 l 129 904 l 129 -236 l 253 -236 l 253 36 b 443 -24 301 -8 365 -24 b 749 328 651 -24 749 147 z m 613 328 b 418 17 613 172 567 17 b 253 86 349 17 282 49 l 253 572 b 421 638 285 613 342 638 b 613 328 565 638 613 479 z "},"U":{"ha":918,"x_min":0,"x_max":0,"o":"m 739 354 b 494 61 739 182 672 61 b 242 354 317 61 242 182 l 242 972 l 119 972 l 119 346 b 458 -12 119 110 242 -12 b 799 346 675 -12 799 110 l 799 972 l 739 972 z "},"Ų":{"ha":918,"x_min":0,"x_max":0,"o":"m 321 -204 b 447 -308 321 -267 361 -308 b 593 -247 513 -308 554 -283 l 572 -222 b 486 -253 546 -243 514 -253 b 421 -194 442 -253 421 -229 b 510 -10 421 -142 450 -74 b 799 346 694 8 799 129 l 799 972 l 739 972 l 739 354 b 494 61 739 182 672 61 b 242 354 317 61 242 182 l 242 972 l 119 972 l 119 346 b 458 -12 119 110 242 -12 l 460 -12 b 321 -204 392 -68 321 -131 z "},"V":{"ha":747,"x_min":0,"x_max":0,"o":"m 163 972 l 31 972 l 307 0 l 431 0 l 718 972 l 661 972 l 406 100 z "},"W":{"ha":1250,"x_min":0,"x_max":0,"o":"m 592 972 l 376 90 l 172 972 l 38 972 l 278 0 l 407 0 l 624 871 l 836 0 l 965 0 l 1210 972 l 1151 972 l 932 90 l 721 972 z "},"X":{"ha":808,"x_min":0,"x_max":0,"o":"m 188 972 l 44 972 l 344 490 l 24 0 l 78 0 l 371 447 l 650 0 l 788 0 l 471 513 l 772 972 l 718 972 l 444 556 z "},"Y":{"ha":804,"x_min":0,"x_max":0,"o":"m 21 972 l 347 383 l 347 0 l 475 0 l 475 401 l 783 972 l 728 972 l 443 446 l 160 972 z "},"Ý":{"ha":804,"x_min":0,"x_max":0,"o":"m 21 972 l 347 383 l 347 0 l 475 0 l 475 401 l 783 972 l 728 972 l 443 446 l 160 972 z m 406 1040 l 594 1279 l 467 1279 l 375 1040 z "},"Ŷ":{"ha":804,"x_min":0,"x_max":0,"o":"m 21 972 l 347 383 l 347 0 l 475 0 l 475 401 l 783 972 l 728 972 l 443 446 l 160 972 z m 374 1278 l 203 1039 l 235 1039 l 414 1201 l 593 1039 l 626 1039 l 456 1278 z "},"Ÿ":{"ha":804,"x_min":0,"x_max":0,"o":"m 21 972 l 347 383 l 347 0 l 475 0 l 475 401 l 783 972 l 728 972 l 443 446 l 160 972 z m 224 1107 b 292 1040 224 1069 247 1040 b 360 1107 335 1040 360 1069 b 292 1178 360 1146 335 1178 b 224 1107 247 1178 224 1146 z m 467 1107 b 535 1040 467 1069 490 1040 b 601 1107 578 1040 601 1069 b 535 1178 601 1146 578 1178 b 467 1107 490 1178 467 1146 z "},"Ỳ":{"ha":804,"x_min":0,"x_max":0,"o":"m 21 972 l 347 383 l 347 0 l 475 0 l 475 401 l 783 972 l 728 972 l 443 446 l 160 972 z m 446 1040 l 354 1279 l 226 1279 l 414 1040 z "},"Z":{"ha":764,"x_min":0,"x_max":0,"o":"m 696 972 l 68 972 l 68 928 l 549 928 l 56 31 l 56 0 l 711 0 l 711 44 l 201 44 l 696 942 z "},"Ź":{"ha":764,"x_min":0,"x_max":0,"o":"m 696 972 l 68 972 l 68 928 l 549 928 l 56 31 l 56 0 l 711 0 l 711 44 l 201 44 l 696 942 z m 364 1042 l 553 1281 l 425 1281 l 333 1042 z "},"Ž":{"ha":764,"x_min":0,"x_max":0,"o":"m 696 972 l 68 972 l 68 928 l 549 928 l 56 31 l 56 0 l 711 0 l 711 44 l 201 44 l 696 942 z m 413 1042 l 583 1281 l 550 1281 l 371 1122 l 192 1281 l 160 1281 l 331 1042 z "},"Ż":{"ha":764,"x_min":0,"x_max":0,"o":"m 696 972 l 68 972 l 68 928 l 549 928 l 56 31 l 56 0 l 711 0 l 711 44 l 201 44 l 696 942 z m 304 1101 b 371 1039 304 1065 328 1039 b 438 1101 414 1039 438 1065 b 371 1171 438 1139 415 1171 b 304 1101 328 1171 304 1139 z "},"a":{"ha":717,"x_min":0,"x_max":0,"o":"m 317 638 b 501 406 404 638 501 597 l 501 371 l 372 371 b 57 168 151 371 57 290 b 278 -14 57 58 133 -14 b 501 110 396 -14 467 35 l 528 -6 l 619 -6 l 619 396 b 343 679 619 606 488 679 b 106 579 232 679 160 632 l 126 554 b 317 638 171 599 229 638 z m 501 240 b 310 31 496 75 383 31 b 181 168 243 31 181 67 b 372 336 181 281 253 336 l 501 336 z "},"á":{"ha":717,"x_min":0,"x_max":0,"o":"m 317 638 b 501 406 404 638 501 597 l 501 371 l 372 371 b 57 168 151 371 57 290 b 278 -14 57 58 133 -14 b 501 110 396 -14 467 35 l 528 -6 l 619 -6 l 619 396 b 343 679 619 606 488 679 b 106 579 232 679 160 632 l 126 554 b 317 638 171 599 229 638 z m 501 240 b 310 31 496 75 383 31 b 181 168 243 31 181 67 b 372 336 181 281 253 336 l 501 336 z m 340 733 l 529 972 l 401 972 l 310 733 z "},"ă":{"ha":717,"x_min":0,"x_max":0,"o":"m 317 638 b 501 406 404 638 501 597 l 501 371 l 372 371 b 57 168 151 371 57 290 b 278 -14 57 58 133 -14 b 501 110 396 -14 467 35 l 528 -6 l 619 -6 l 619 396 b 343 679 619 606 488 679 b 106 579 232 679 160 632 l 126 554 b 317 638 171 599 229 638 z m 501 240 b 310 31 496 75 383 31 b 181 168 243 31 181 67 b 372 336 181 281 253 336 l 501 336 z m 478 939 b 344 828 478 874 439 828 b 211 939 249 828 211 881 l 183 939 b 344 757 183 826 239 757 b 506 939 450 757 506 826 z "},"â":{"ha":717,"x_min":0,"x_max":0,"o":"m 317 638 b 501 406 404 638 501 597 l 501 371 l 372 371 b 57 168 151 371 57 290 b 278 -14 57 58 133 -14 b 501 110 396 -14 467 35 l 528 -6 l 619 -6 l 619 396 b 343 679 619 606 488 679 b 106 579 232 679 160 632 l 126 554 b 317 638 171 599 229 638 z m 501 240 b 310 31 496 75 383 31 b 181 168 243 31 181 67 b 372 336 181 281 253 336 l 501 336 z m 306 972 l 135 733 l 167 733 l 346 896 l 525 733 l 558 733 l 388 972 z "},"´":{"ha":385,"x_min":0,"x_max":0,"o":"m 153 733 l 342 972 l 214 972 l 122 733 z "},"ä":{"ha":717,"x_min":0,"x_max":0,"o":"m 317 638 b 501 406 404 638 501 597 l 501 371 l 372 371 b 57 168 151 371 57 290 b 278 -14 57 58 133 -14 b 501 110 396 -14 467 35 l 528 -6 l 619 -6 l 619 396 b 343 679 619 606 488 679 b 106 579 232 679 160 632 l 126 554 b 317 638 171 599 229 638 z m 501 240 b 310 31 496 75 383 31 b 181 168 243 31 181 67 b 372 336 181 281 253 336 l 501 336 z m 154 854 b 222 788 154 817 178 788 b 290 854 265 788 290 817 b 222 925 290 893 265 925 b 154 854 178 925 154 893 z m 397 854 b 465 788 397 817 421 788 b 532 854 508 788 532 817 b 465 925 532 893 508 925 b 397 854 421 925 397 893 z "},"æ":{"ha":1149,"x_min":0,"x_max":0,"o":"m 796 679 b 569 588 701 679 622 649 b 322 679 518 663 425 679 b 114 638 242 679 165 661 l 114 601 b 310 638 167 621 231 638 b 490 422 407 638 490 613 l 490 371 l 322 371 b 50 168 124 371 50 285 b 269 -15 50 51 142 -15 b 544 114 393 -15 493 22 b 808 -14 600 24 696 -14 b 1065 101 947 -14 1018 49 l 1042 121 b 826 35 993 75 921 35 b 614 332 696 35 614 128 l 1079 332 l 1079 365 b 796 679 1079 578 974 679 z m 297 28 b 174 172 238 28 174 61 b 351 329 174 272 233 329 l 490 329 l 490 240 b 297 28 490 74 394 28 z m 796 643 b 958 369 907 643 957 529 l 615 369 b 796 643 622 549 686 643 z "},"ǽ":{"ha":1131,"x_min":0,"x_max":0,"o":"m 796 679 b 569 588 701 679 622 649 b 322 679 518 663 425 679 b 114 638 242 679 165 661 l 114 601 b 310 638 167 621 231 638 b 490 422 407 638 490 613 l 490 371 l 322 371 b 50 168 124 371 50 285 b 269 -15 50 51 142 -15 b 544 114 393 -15 493 22 b 808 -14 600 24 696 -14 b 1065 101 947 -14 1018 49 l 1042 121 b 826 35 993 75 921 35 b 614 332 696 35 614 128 l 1079 332 l 1079 365 b 796 679 1079 578 974 679 z m 297 28 b 174 172 238 28 174 61 b 351 329 174 272 233 329 l 490 329 l 490 240 b 297 28 490 74 394 28 z m 796 643 b 958 369 907 643 957 529 l 615 369 b 796 643 622 549 686 643 z m 578 733 l 767 972 l 639 972 l 547 733 z "},"à":{"ha":717,"x_min":0,"x_max":0,"o":"m 317 638 b 501 406 404 638 501 597 l 501 371 l 372 371 b 57 168 151 371 57 290 b 278 -14 57 58 133 -14 b 501 110 396 -14 467 35 l 528 -6 l 619 -6 l 619 396 b 343 679 619 606 488 679 b 106 579 232 679 160 632 l 126 554 b 317 638 171 599 229 638 z m 501 240 b 310 31 496 75 383 31 b 181 168 243 31 181 67 b 372 336 181 281 253 336 l 501 336 z m 382 733 l 290 972 l 163 972 l 350 733 z "},"ā":{"ha":717,"x_min":0,"x_max":0,"o":"m 317 638 b 501 406 404 638 501 597 l 501 371 l 372 371 b 57 168 151 371 57 290 b 278 -14 57 58 133 -14 b 501 110 396 -14 467 35 l 528 -6 l 619 -6 l 619 396 b 343 679 619 606 488 679 b 106 579 232 679 160 632 l 126 554 b 317 638 171 599 229 638 z m 501 240 b 310 31 496 75 383 31 b 181 168 243 31 181 67 b 372 336 181 281 253 336 l 501 336 z m 169 839 l 522 839 l 522 881 l 169 881 z "},"&":{"ha":910,"x_min":0,"x_max":0,"o":"m 403 985 b 111 742 206 985 111 878 b 268 532 111 622 169 547 b 75 278 185 518 75 463 b 407 -14 75 68 194 -14 b 704 60 532 -14 636 24 l 704 508 l 869 508 l 869 553 l 429 553 b 240 754 301 553 240 606 b 418 942 240 850 289 942 b 649 860 528 942 594 904 l 674 892 b 403 985 629 931 544 985 z m 429 508 l 583 508 l 583 54 b 410 29 532 38 472 29 b 206 279 267 29 206 113 b 429 508 206 439 269 508 z "},"ą":{"ha":717,"x_min":0,"x_max":0,"o":"m 406 -204 b 532 -308 406 -267 446 -308 b 678 -247 597 -308 639 -283 l 657 -222 b 571 -253 631 -243 599 -253 b 506 -194 526 -253 506 -229 b 599 -6 506 -140 536 -71 l 619 -6 l 619 396 b 343 679 619 606 488 679 b 106 579 232 679 160 632 l 126 554 b 317 638 171 599 229 638 b 501 406 404 638 501 597 l 501 371 l 372 371 b 57 168 151 371 57 290 b 278 -14 57 58 133 -14 b 501 110 396 -14 467 35 l 528 -6 l 554 -6 b 406 -204 482 -64 406 -128 z m 501 240 b 310 31 496 75 383 31 b 181 168 243 31 181 67 b 372 336 181 281 253 336 l 501 336 z "},"å":{"ha":717,"x_min":0,"x_max":0,"o":"m 317 638 b 501 406 404 638 501 597 l 501 371 l 372 371 b 57 168 151 371 57 290 b 278 -14 57 58 133 -14 b 501 110 396 -14 467 35 l 528 -6 l 619 -6 l 619 396 b 343 679 619 606 488 679 b 106 579 232 679 160 632 l 126 554 b 317 638 171 599 229 638 z m 501 240 b 310 31 496 75 383 31 b 181 168 243 31 181 67 b 372 336 181 281 253 336 l 501 336 z m 514 856 b 344 972 514 919 461 972 b 176 856 229 972 176 921 b 344 732 176 786 229 732 b 514 856 461 732 514 786 z m 267 856 b 344 943 267 908 294 943 b 424 856 393 943 424 908 b 344 763 424 800 393 763 b 267 856 294 763 267 800 z "},"^":{"ha":667,"x_min":0,"x_max":0,"o":"m 281 972 l 68 665 l 100 665 l 333 888 l 565 665 l 599 665 l 386 972 z "},"~":{"ha":749,"x_min":0,"x_max":0,"o":"m 628 497 b 518 404 607 422 569 404 b 242 532 439 404 378 532 b 92 381 129 532 99 443 l 124 372 b 240 465 142 443 182 465 b 513 338 344 465 379 338 b 658 488 610 338 650 428 z "},"*":{"ha":622,"x_min":0,"x_max":0,"o":"m 90 685 l 142 617 l 294 742 l 267 553 l 351 553 l 324 742 l 476 617 l 528 688 l 339 768 l 528 849 l 476 917 l 322 789 l 353 983 l 268 983 l 294 792 l 142 919 l 89 849 l 282 767 z "},"@":{"ha":1085,"x_min":0,"x_max":0,"o":"m 1021 529 b 560 985 1021 764 875 985 b 72 471 254 985 72 769 b 569 -14 72 154 274 -14 b 963 161 775 -14 910 76 l 938 181 b 569 29 881 99 763 29 b 157 476 324 29 157 179 b 560 943 157 754 304 943 b 936 511 818 943 936 765 b 828 303 936 347 886 303 b 742 422 775 303 742 342 l 742 669 l 657 669 l 657 644 b 526 686 608 674 572 686 b 313 468 403 686 313 600 b 518 263 313 346 390 263 b 672 343 600 263 644 293 b 819 263 700 285 760 263 b 1021 529 936 263 1021 350 z m 536 303 b 406 468 447 303 406 365 b 540 646 406 585 460 646 b 657 601 576 646 619 632 l 657 425 b 658 400 657 415 657 407 b 536 303 626 324 583 303 z "},"ã":{"ha":717,"x_min":0,"x_max":0,"o":"m 317 638 b 501 406 404 638 501 597 l 501 371 l 372 371 b 57 168 151 371 57 290 b 278 -14 57 58 133 -14 b 501 110 396 -14 467 35 l 528 -6 l 619 -6 l 619 396 b 343 679 619 606 488 679 b 106 579 232 679 160 632 l 126 554 b 317 638 171 599 229 638 z m 501 240 b 310 31 496 75 383 31 b 181 168 243 31 181 67 b 372 336 181 281 253 336 l 501 336 z m 492 931 b 453 861 492 875 478 861 b 247 931 403 861 317 931 b 164 786 188 931 164 881 l 193 786 b 239 856 193 836 213 856 b 446 786 285 856 383 786 b 522 931 499 786 522 828 z "},"b":{"ha":788,"x_min":0,"x_max":0,"o":"m 431 -15 b 718 332 607 -15 718 97 b 431 679 718 567 607 679 b 224 556 333 679 263 644 l 224 1042 l 104 1042 l 104 -6 l 204 -6 l 224 106 b 431 -15 264 18 333 -15 z m 406 636 b 592 332 528 636 592 539 b 406 28 592 125 528 28 b 219 332 283 28 219 126 b 406 636 219 538 283 636 z "},"\\":{"ha":563,"x_min":0,"x_max":0,"o":"m 451 -54 l 529 -54 l 113 1028 l 35 1028 z "},"|":{"ha":368,"x_min":0,"x_max":0,"o":"m 231 1043 l 138 1043 l 138 -347 l 231 -347 z "},"{":{"ha":463,"x_min":0,"x_max":0,"o":"m 419 -276 b 263 -17 317 -276 263 -151 b 275 199 263 72 275 142 b 251 301 275 236 269 269 b 178 364 229 342 211 344 b 246 428 210 379 228 390 b 268 568 264 463 268 514 b 263 736 268 626 263 689 b 419 1003 263 878 317 1003 l 419 1033 b 138 736 250 1033 138 929 b 146 533 138 646 143 582 b 50 374 146 443 115 388 l 50 351 b 144 214 115 339 144 283 b 138 -10 144 143 138 79 b 419 -307 138 -203 250 -307 z "},"}":{"ha":463,"x_min":0,"x_max":0,"o":"m 43 -307 b 325 -10 213 -307 325 -203 b 318 214 325 79 318 143 b 413 351 318 283 347 339 l 413 374 b 317 533 347 388 317 443 b 325 736 319 582 325 646 b 43 1033 325 929 213 1033 l 43 1003 b 200 736 146 1003 200 878 b 194 568 200 689 194 626 b 217 428 194 514 199 463 b 285 364 235 390 253 379 b 211 301 251 344 233 342 b 188 199 193 269 188 236 b 200 -17 188 142 200 72 b 43 -276 200 -151 146 -276 z "},"[":{"ha":425,"x_min":0,"x_max":0,"o":"m 249 968 l 381 986 l 381 1014 l 119 1014 l 119 -212 l 381 -212 l 381 -185 l 249 -168 z "},"]":{"ha":425,"x_min":0,"x_max":0,"o":"m 176 -168 l 44 -185 l 44 -212 l 306 -212 l 306 1014 l 44 1014 l 44 986 l 176 968 z "},"˘":{"ha":771,"x_min":0,"x_max":0,"o":"m 510 939 b 376 828 510 874 471 828 b 243 939 281 828 243 881 l 215 939 b 376 757 215 826 271 757 b 538 939 482 757 538 826 z "},"¦":{"ha":329,"x_min":0,"x_max":0,"o":"m 118 208 l 118 -347 l 211 -347 l 211 208 z m 211 488 l 211 1043 l 118 1043 l 118 488 z "},"•":{"ha":461,"x_min":0,"x_max":0,"o":"m 119 488 b 231 378 119 424 158 378 b 342 488 303 378 342 424 b 231 603 342 547 303 603 b 119 488 158 603 119 547 z "},"c":{"ha":663,"x_min":0,"x_max":0,"o":"m 415 639 b 576 572 485 639 535 611 l 597 596 b 385 679 546 650 481 679 b 68 329 185 679 68 546 b 382 -14 68 111 185 -14 b 625 79 501 -14 571 29 l 603 103 b 413 28 565 68 500 28 b 188 331 269 28 188 136 b 415 639 188 521 267 639 z "},"ć":{"ha":663,"x_min":0,"x_max":0,"o":"m 415 639 b 576 572 485 639 535 611 l 597 596 b 385 679 546 650 481 679 b 68 329 185 679 68 546 b 382 -14 68 111 185 -14 b 625 79 501 -14 571 29 l 603 103 b 413 28 565 68 500 28 b 188 331 269 28 188 136 b 415 639 188 521 267 639 z m 390 733 l 579 972 l 451 972 l 360 733 z "},"ˇ":{"ha":1153,"x_min":0,"x_max":0,"o":"m 428 733 l 599 972 l 565 972 l 386 814 l 207 972 l 175 972 l 346 733 z "},"č":{"ha":663,"x_min":0,"x_max":0,"o":"m 415 639 b 576 572 485 639 535 611 l 597 596 b 385 679 546 650 481 679 b 68 329 185 679 68 546 b 382 -14 68 111 185 -14 b 625 79 501 -14 571 29 l 603 103 b 413 28 565 68 500 28 b 188 331 269 28 188 136 b 415 639 188 521 267 639 z m 436 735 l 607 974 l 574 974 l 394 815 l 215 974 l 183 974 l 354 735 z "},"ç":{"ha":663,"x_min":0,"x_max":0,"o":"m 328 -128 l 369 -128 b 450 -200 417 -128 450 -149 b 363 -274 450 -250 415 -274 b 263 -250 325 -274 290 -262 l 253 -283 b 385 -314 278 -296 322 -314 b 542 -194 488 -314 542 -275 b 410 -87 542 -117 476 -87 b 379 -89 397 -87 385 -87 l 404 -12 b 625 79 510 -8 574 32 l 603 103 b 413 28 565 68 500 28 b 188 331 269 28 188 136 b 415 639 188 521 267 639 b 576 572 485 639 535 611 l 597 596 b 385 679 546 650 481 679 b 68 329 185 679 68 546 b 365 -14 68 117 178 -7 z "},"ĉ":{"ha":663,"x_min":0,"x_max":0,"o":"m 415 639 b 576 572 485 639 535 611 l 597 596 b 385 679 546 650 481 679 b 68 329 185 679 68 546 b 382 -14 68 111 185 -14 b 625 79 501 -14 571 29 l 603 103 b 413 28 565 68 500 28 b 188 331 269 28 188 136 b 415 639 188 521 267 639 z m 357 972 l 186 733 l 218 733 l 397 896 l 576 733 l 610 733 l 439 972 z "},"ċ":{"ha":663,"x_min":0,"x_max":0,"o":"m 415 639 b 576 572 485 639 535 611 l 597 596 b 385 679 546 650 481 679 b 68 329 185 679 68 546 b 382 -14 68 111 185 -14 b 625 79 501 -14 571 29 l 603 103 b 413 28 565 68 500 28 b 188 331 269 28 188 136 b 415 639 188 521 267 639 z m 328 861 b 394 799 328 825 351 799 b 461 861 438 799 461 825 b 394 931 461 899 439 931 b 328 861 351 931 328 899 z "},"¸":{"ha":429,"x_min":0,"x_max":0,"o":"m 179 -128 l 221 -128 b 301 -200 268 -128 301 -149 b 214 -274 301 -250 267 -274 b 114 -250 176 -274 142 -262 l 104 -283 b 236 -314 129 -296 174 -314 b 393 -194 339 -314 393 -275 b 261 -87 393 -117 328 -87 b 231 -89 249 -87 236 -87 l 261 0 l 221 0 z "},"¢":{"ha":678,"x_min":0,"x_max":0,"o":"m 411 -128 l 411 -12 b 625 79 513 -7 575 33 l 603 103 b 413 28 565 68 500 28 b 188 331 269 28 188 136 b 415 639 188 521 267 639 b 576 572 485 639 535 611 l 597 596 b 411 678 550 644 493 674 l 411 808 l 358 808 l 358 678 b 68 329 174 667 68 536 b 358 -12 68 119 175 -3 l 358 -128 z "},"ˆ":{"ha":1124,"x_min":0,"x_max":0,"o":"m 346 972 l 175 733 l 207 733 l 386 896 l 565 733 l 599 733 l 428 972 z "},":":{"ha":340,"x_min":0,"x_max":0,"o":"m 93 593 b 169 517 93 546 121 517 b 247 593 218 517 247 546 b 169 669 247 636 218 669 b 93 593 121 669 93 636 z m 93 61 b 169 -14 93 15 121 -14 b 247 61 218 -14 247 15 b 169 139 247 106 218 139 b 93 61 121 139 93 106 z "},",":{"ha":322,"x_min":0,"x_max":0,"o":"m 83 57 b 143 -14 83 8 110 -14 b 183 4 158 -14 172 -8 b 58 -156 183 -43 138 -114 l 69 -175 b 238 47 151 -136 238 -62 b 160 139 238 111 204 139 b 83 57 117 139 83 110 z "},"":{"ha":342,"x_min":0,"x_max":0,"o":"m 110 -150 b 154 -203 110 -186 129 -203 b 186 -189 165 -203 178 -199 b 88 -319 186 -218 150 -276 l 97 -333 b 225 -160 164 -293 225 -235 b 167 -87 225 -110 199 -87 b 110 -150 135 -87 110 -108 z "},"©":{"ha":1146,"x_min":0,"x_max":0,"o":"m 1074 488 b 574 985 1074 797 876 985 b 72 488 271 985 72 797 b 574 -14 72 176 271 -14 b 1074 488 876 -14 1074 176 z m 174 489 b 574 946 174 781 321 946 b 972 489 835 946 972 778 b 574 25 972 200 835 25 b 174 489 318 25 174 200 z m 617 747 b 749 692 674 747 714 724 l 765 711 b 593 782 724 757 671 782 b 336 488 431 782 336 669 b 590 200 336 304 431 200 b 788 278 688 200 743 236 l 769 297 b 615 235 739 268 686 235 b 432 489 499 235 432 325 b 617 747 432 649 497 747 z "},"¤":{"ha":799,"x_min":0,"x_max":0,"o":"m 165 142 l 213 190 b 399 128 263 149 328 128 b 585 188 468 128 533 147 l 631 142 l 694 185 l 636 243 b 690 439 669 293 690 357 b 636 633 690 519 669 585 l 694 693 l 631 736 l 585 689 b 399 750 533 729 468 750 b 213 688 328 750 263 729 l 165 736 l 100 694 l 161 631 b 110 439 129 582 110 518 b 161 246 110 358 129 294 l 100 183 z m 231 439 b 399 707 231 638 304 707 b 567 439 492 707 567 638 b 399 171 567 240 488 171 b 231 439 307 171 231 240 z "},"d":{"ha":790,"x_min":0,"x_max":0,"o":"m 688 0 l 688 1042 l 567 1042 l 567 542 b 354 679 529 640 457 679 b 68 332 178 679 68 567 b 354 -15 68 97 178 -15 b 572 139 463 -15 536 28 l 585 0 z m 379 636 b 567 332 503 636 567 538 b 379 28 567 126 503 28 b 193 332 258 28 193 125 b 379 636 193 539 258 636 z "},"†":{"ha":868,"x_min":0,"x_max":0,"o":"m 354 -315 l 517 -315 l 457 575 l 788 540 l 788 646 l 457 608 l 517 1006 l 354 1006 l 413 608 l 81 646 l 81 540 l 413 575 z "},"‡":{"ha":864,"x_min":0,"x_max":0,"o":"m 782 540 l 782 646 l 463 607 l 513 1006 l 350 1004 l 397 607 l 79 646 l 79 540 l 399 578 l 399 111 l 79 150 l 79 44 l 397 83 l 350 -315 l 513 -314 l 463 83 l 782 44 l 782 150 l 464 111 l 464 578 z "},"ď":{"ha":892,"x_min":0,"x_max":0,"o":"m 690 0 l 690 1042 l 571 1042 l 571 529 b 354 679 535 638 461 679 b 68 332 178 679 68 567 b 354 -15 68 97 178 -15 b 575 149 465 -15 540 31 l 589 0 z m 379 636 b 567 332 503 636 567 538 b 379 28 567 126 503 28 b 193 332 258 28 193 125 b 379 636 193 539 258 636 z m 775 960 b 835 889 775 911 801 889 b 875 907 850 889 864 894 b 750 747 875 860 829 789 l 761 728 b 929 950 843 767 929 840 b 851 1042 929 1014 896 1042 b 775 960 808 1042 775 1013 z "},"đ":{"ha":815,"x_min":0,"x_max":0,"o":"m 710 0 l 710 813 l 828 813 l 828 857 l 710 857 l 710 1042 l 589 1042 l 589 857 l 407 857 l 407 813 l 589 813 l 589 542 b 376 679 551 640 479 679 b 90 332 200 679 90 567 b 376 -15 90 97 200 -15 b 594 139 485 -15 558 28 l 607 0 z m 401 636 b 589 347 522 636 586 542 l 589 317 b 401 28 586 121 522 28 b 217 332 281 28 217 125 b 401 636 217 539 281 636 z "},"°":{"ha":497,"x_min":0,"x_max":0,"o":"m 431 821 b 249 974 431 903 356 974 b 67 821 139 974 67 903 b 249 658 67 721 139 658 b 431 821 356 658 431 721 z m 140 821 b 249 940 140 878 169 940 b 356 821 328 940 356 878 b 249 693 356 761 326 693 b 140 821 171 693 140 761 z "},"¨":{"ha":833,"x_min":0,"x_max":0,"o":"m 197 854 b 265 788 197 817 221 788 b 333 854 308 788 333 817 b 265 925 333 893 308 925 b 197 854 221 925 197 893 z m 440 854 b 508 788 440 817 464 788 b 575 854 551 788 575 817 b 508 925 575 893 551 925 b 440 854 464 925 440 893 z "},"$":{"ha":700,"x_min":0,"x_max":0,"o":"m 361 -128 l 364 -14 b 647 249 515 -11 647 82 b 197 768 647 594 197 539 b 379 936 197 874 271 936 b 593 847 465 936 535 904 l 617 869 b 403 983 564 924 501 974 l 407 1100 l 360 1100 l 356 985 b 89 740 188 979 89 886 b 542 217 89 443 542 489 b 339 38 542 111 461 38 b 72 156 226 38 128 99 l 50 132 b 317 -11 104 72 190 1 l 314 -128 z "},"˙":{"ha":400,"x_min":0,"x_max":0,"o":"m 132 861 b 199 799 132 825 156 799 b 265 861 242 799 265 825 b 199 931 265 899 243 931 b 132 861 156 931 132 899 z "},"ı":{"ha":328,"x_min":0,"x_max":0,"o":"m 104 0 l 224 0 l 224 664 l 104 664 z "},"ȷ":{"ha":379,"x_min":0,"x_max":0,"o":"m -15 -306 b 275 53 154 -272 275 -160 l 275 664 l 154 664 l 154 44 b -22 -276 154 -164 115 -240 z "},"e":{"ha":719,"x_min":0,"x_max":0,"o":"m 371 679 b 67 332 190 679 67 569 b 383 -14 67 85 204 -14 b 640 101 522 -14 593 49 l 617 121 b 401 35 568 75 496 35 b 189 332 271 35 189 128 l 654 332 l 654 365 b 371 679 654 578 549 679 z m 371 643 b 533 369 482 643 532 529 l 190 369 b 371 643 197 549 261 643 z "},"é":{"ha":719,"x_min":0,"x_max":0,"o":"m 371 679 b 67 332 190 679 67 569 b 383 -14 67 85 204 -14 b 640 101 522 -14 593 49 l 617 121 b 401 35 568 75 496 35 b 189 332 271 35 189 128 l 654 332 l 654 365 b 371 679 654 578 549 679 z m 371 643 b 533 369 482 643 532 529 l 190 369 b 371 643 197 549 261 643 z m 367 733 l 556 972 l 428 972 l 336 733 z "},"ĕ":{"ha":719,"x_min":0,"x_max":0,"o":"m 371 679 b 67 332 190 679 67 569 b 383 -14 67 85 204 -14 b 640 101 522 -14 593 49 l 617 121 b 401 35 568 75 496 35 b 189 332 271 35 189 128 l 654 332 l 654 365 b 371 679 654 578 549 679 z m 371 643 b 533 369 482 643 532 529 l 190 369 b 371 643 197 549 261 643 z m 507 939 b 374 828 507 874 468 828 b 240 939 278 828 240 881 l 213 939 b 374 757 213 826 268 757 b 535 939 479 757 535 826 z "},"ě":{"ha":719,"x_min":0,"x_max":0,"o":"m 371 679 b 67 332 190 679 67 569 b 383 -14 67 85 204 -14 b 640 101 522 -14 593 49 l 617 121 b 401 35 568 75 496 35 b 189 332 271 35 189 128 l 654 332 l 654 365 b 371 679 654 578 549 679 z m 371 643 b 533 369 482 643 532 529 l 190 369 b 371 643 197 549 261 643 z m 413 735 l 583 974 l 550 974 l 371 815 l 192 974 l 160 974 l 331 735 z "},"ê":{"ha":719,"x_min":0,"x_max":0,"o":"m 371 679 b 67 332 190 679 67 569 b 383 -14 67 85 204 -14 b 640 101 522 -14 593 49 l 617 121 b 401 35 568 75 496 35 b 189 332 271 35 189 128 l 654 332 l 654 365 b 371 679 654 578 549 679 z m 371 643 b 533 369 482 643 532 529 l 190 369 b 371 643 197 549 261 643 z m 333 972 l 163 733 l 194 733 l 374 896 l 553 733 l 586 733 l 415 972 z "},"ë":{"ha":719,"x_min":0,"x_max":0,"o":"m 371 679 b 67 332 190 679 67 569 b 383 -14 67 85 204 -14 b 640 101 522 -14 593 49 l 617 121 b 401 35 568 75 496 35 b 189 332 271 35 189 128 l 654 332 l 654 365 b 371 679 654 578 549 679 z m 371 643 b 533 369 482 643 532 529 l 190 369 b 371 643 197 549 261 643 z m 181 854 b 249 788 181 817 204 788 b 317 854 292 788 317 817 b 249 925 317 893 292 925 b 181 854 204 925 181 893 z m 424 854 b 492 788 424 817 447 788 b 558 854 535 788 558 817 b 492 925 558 893 535 925 b 424 854 447 925 424 893 z "},"ė":{"ha":719,"x_min":0,"x_max":0,"o":"m 371 679 b 67 332 190 679 67 569 b 383 -14 67 85 204 -14 b 640 101 522 -14 593 49 l 617 121 b 401 35 568 75 496 35 b 189 332 271 35 189 128 l 654 332 l 654 365 b 371 679 654 578 549 679 z m 371 643 b 533 369 482 643 532 529 l 190 369 b 371 643 197 549 261 643 z m 304 861 b 371 799 304 825 328 799 b 438 861 414 799 438 825 b 371 931 438 899 415 931 b 304 861 328 931 304 899 z "},"è":{"ha":719,"x_min":0,"x_max":0,"o":"m 371 679 b 67 332 190 679 67 569 b 383 -14 67 85 204 -14 b 640 101 522 -14 593 49 l 617 121 b 401 35 568 75 496 35 b 189 332 271 35 189 128 l 654 332 l 654 365 b 371 679 654 578 549 679 z m 371 643 b 533 369 482 643 532 529 l 190 369 b 371 643 197 549 261 643 z m 408 733 l 317 972 l 189 972 l 376 733 z "},"₈":{"ha":608,"x_min":0,"x_max":0,"o":"m 500 221 b 306 383 500 324 428 383 b 110 221 182 383 110 324 b 225 74 110 139 154 92 b 68 -118 128 50 68 -17 b 306 -315 68 -251 168 -315 b 542 -119 443 -315 542 -253 b 386 74 542 -15 482 50 b 500 221 456 92 500 139 z m 176 -119 b 307 54 176 -15 226 54 b 432 -119 383 54 432 -12 b 306 -282 432 -225 383 -282 b 176 -119 226 -282 176 -224 z m 208 218 b 306 350 208 303 244 350 b 403 221 365 350 403 303 b 306 88 403 154 379 88 b 208 218 231 88 208 156 z "},"":{"ha":724,"x_min":0,"x_max":0,"o":"m 607 676 b 363 886 607 808 515 886 b 115 676 210 886 115 808 b 265 486 115 571 174 510 b 63 240 139 458 63 374 b 363 -12 63 69 188 -12 b 660 239 536 -12 660 68 b 458 486 660 374 583 458 b 607 676 549 510 607 571 z m 189 239 b 364 464 189 374 257 464 b 535 240 468 464 535 376 b 363 29 535 103 468 29 b 189 239 256 29 189 104 z m 229 675 b 363 844 229 783 279 844 b 496 676 446 844 496 783 b 363 506 496 592 464 506 b 229 675 260 506 229 593 z "},"⁸":{"ha":608,"x_min":0,"x_max":0,"o":"m 500 832 b 306 994 500 935 428 994 b 110 832 182 994 110 935 b 225 685 110 750 154 703 b 68 493 128 661 68 594 b 306 296 68 360 168 296 b 542 492 443 296 542 358 b 386 685 542 596 482 661 b 500 832 456 703 500 750 z m 176 492 b 307 665 176 596 226 665 b 432 492 383 665 432 599 b 306 329 432 386 383 329 b 176 492 226 329 176 388 z m 208 829 b 306 961 208 914 244 961 b 403 832 365 961 403 914 b 306 699 403 765 379 699 b 208 829 231 699 208 767 z "},"ē":{"ha":719,"x_min":0,"x_max":0,"o":"m 371 679 b 67 332 190 679 67 569 b 383 -14 67 85 204 -14 b 640 101 522 -14 593 49 l 617 121 b 401 35 568 75 496 35 b 189 332 271 35 189 128 l 654 332 l 654 365 b 371 679 654 578 549 679 z m 371 643 b 533 369 482 643 532 529 l 190 369 b 371 643 197 549 261 643 z m 196 839 l 549 839 l 549 881 l 196 881 z "},"—":{"ha":815,"x_min":0,"x_max":0,"o":"m 732 364 l 732 408 l 82 408 l 82 364 z "},"–":{"ha":607,"x_min":0,"x_max":0,"o":"m 514 367 l 514 411 l 93 411 l 93 367 z "},"ę":{"ha":719,"x_min":0,"x_max":0,"o":"m 238 -204 b 364 -308 238 -267 278 -308 b 510 -247 429 -308 471 -283 l 489 -222 b 403 -253 463 -243 431 -253 b 338 -194 358 -253 338 -229 b 424 -11 338 -142 367 -75 b 640 101 536 0 597 54 l 617 121 b 401 35 568 75 496 35 b 189 332 271 35 189 128 l 654 332 l 654 365 b 371 679 654 578 549 679 b 67 332 190 679 67 569 b 375 -14 67 88 200 -11 b 238 -204 307 -69 238 -131 z m 371 643 b 533 369 482 643 532 529 l 190 369 b 371 643 197 549 261 643 z "},"=":{"ha":781,"x_min":0,"x_max":0,"o":"m 97 460 l 685 460 l 685 504 l 97 504 z m 97 232 l 685 232 l 685 276 l 97 276 z "},"ð":{"ha":835,"x_min":0,"x_max":0,"o":"m 525 1033 l 493 1056 l 418 969 b 214 1050 353 1006 282 1032 l 201 1019 b 386 932 274 997 335 968 l 286 817 l 315 793 l 418 910 b 624 560 536 817 597 692 b 392 638 567 603 496 638 b 67 310 211 638 67 521 b 404 -14 67 92 213 -14 b 760 403 608 -14 760 101 b 453 950 760 674 624 846 z m 639 394 b 401 32 639 147 542 32 b 193 313 289 32 193 121 b 413 594 193 481 269 594 b 632 499 507 594 572 558 b 639 394 636 464 639 429 z "},"!":{"ha":354,"x_min":0,"x_max":0,"o":"m 204 215 l 253 972 l 99 972 l 150 215 z m 100 61 b 176 -14 100 15 128 -14 b 254 61 225 -14 254 15 b 176 139 254 106 225 139 b 100 61 128 139 100 106 z "},"¡":{"ha":338,"x_min":0,"x_max":0,"o":"m 196 497 l 244 -260 l 90 -260 l 140 497 z m 94 647 b 171 571 94 600 122 571 b 247 647 218 571 247 600 b 171 724 247 690 218 724 b 94 647 122 724 94 690 z "},"f":{"ha":425,"x_min":0,"x_max":0,"o":"m 375 999 b 456 981 404 999 428 993 l 468 1008 b 339 1042 425 1033 389 1042 b 136 810 213 1042 136 969 l 136 664 l 53 664 l 53 622 l 136 622 l 136 0 l 256 0 l 256 257 l 257 257 l 257 622 l 399 622 l 399 664 l 257 664 l 257 817 b 375 999 257 961 301 999 z "},"₅":{"ha":558,"x_min":0,"x_max":0,"o":"m 247 -272 b 86 -189 185 -272 125 -242 l 68 -201 b 275 -315 111 -271 174 -315 b 490 -104 418 -315 490 -235 b 222 104 490 19 415 104 l 158 104 l 178 303 l 388 303 b 453 293 403 303 436 303 l 440 375 l 153 375 l 122 67 l 194 67 b 386 -104 326 67 386 3 b 247 -272 386 -215 328 -272 z "},"":{"ha":628,"x_min":0,"x_max":0,"o":"m 269 -172 b 58 -62 186 -172 111 -133 l 36 -79 b 300 -224 92 -165 171 -224 b 572 47 478 -224 572 -119 b 236 315 572 208 476 315 l 150 315 l 175 581 l 440 581 b 525 568 460 581 504 581 l 510 664 l 143 664 l 106 269 l 206 269 b 453 47 374 269 453 188 b 269 -172 453 -97 375 -172 z "},"⁵":{"ha":558,"x_min":0,"x_max":0,"o":"m 247 339 b 86 422 185 339 125 369 l 68 410 b 275 296 111 340 174 296 b 490 507 418 296 490 376 b 222 715 490 631 415 715 l 158 715 l 178 914 l 388 914 b 453 904 403 914 436 914 l 440 986 l 153 986 l 122 678 l 194 678 b 386 507 326 678 386 614 b 247 339 386 396 328 339 z "},"ƒ":{"ha":568,"x_min":0,"x_max":0,"o":"m 457 999 b 536 981 485 999 508 993 l 549 1008 b 421 1042 507 1033 471 1042 b 218 810 294 1042 218 969 l 218 664 l 135 664 l 135 622 l 218 622 l 218 44 b 42 -276 218 -164 178 -240 l 49 -306 b 338 53 218 -272 338 -160 l 338 622 l 481 622 l 481 664 l 338 664 l 338 817 b 457 999 338 961 382 999 z "},"₄":{"ha":604,"x_min":0,"x_max":0,"o":"m 68 -167 l 333 -167 l 333 -306 l 436 -306 l 436 -167 l 536 -167 l 536 -94 l 436 -94 l 436 376 l 414 376 l 68 -129 z m 133 -94 l 333 214 l 333 -94 z "},"":{"ha":664,"x_min":0,"x_max":0,"o":"m 32 0 l 376 0 l 376 -182 l 494 -182 l 494 0 l 624 0 l 624 83 l 494 83 l 494 696 l 468 696 l 32 49 z m 106 83 l 376 504 l 376 83 z "},"⁴":{"ha":604,"x_min":0,"x_max":0,"o":"m 68 444 l 333 444 l 333 306 l 436 306 l 436 444 l 536 444 l 536 517 l 436 517 l 436 988 l 414 988 l 68 482 z m 133 517 l 333 825 l 333 517 z "},"⁄":{"ha":344,"x_min":0,"x_max":0,"o":"m 524 1014 l 447 1014 l -162 -47 l -82 -47 z "},"g":{"ha":813,"x_min":0,"x_max":0,"o":"m 624 664 l 592 535 b 378 679 556 639 482 679 b 90 332 201 679 90 567 b 378 -15 90 97 201 -15 b 589 118 479 -15 550 22 l 589 57 b 338 -253 589 -157 501 -253 b 104 -182 263 -253 163 -226 l 85 -207 b 367 -304 146 -256 243 -304 b 708 86 589 -304 708 -182 l 708 664 z m 403 636 b 589 332 525 636 589 538 b 403 28 589 126 525 28 b 217 332 281 28 217 125 b 403 636 217 539 281 636 z "},"ğ":{"ha":813,"x_min":0,"x_max":0,"o":"m 624 664 l 592 535 b 378 679 556 639 482 679 b 90 332 201 679 90 567 b 378 -15 90 97 201 -15 b 589 118 479 -15 550 22 l 589 57 b 338 -253 589 -157 501 -253 b 104 -182 263 -253 163 -226 l 85 -207 b 367 -304 146 -256 243 -304 b 708 86 589 -304 708 -182 l 708 664 z m 403 636 b 589 332 525 636 589 538 b 403 28 589 126 525 28 b 217 332 281 28 217 125 b 403 636 217 539 281 636 z m 549 939 b 415 828 549 874 510 828 b 282 939 319 828 282 881 l 254 939 b 415 757 254 826 310 757 b 576 939 521 757 576 826 z "},"ĝ":{"ha":813,"x_min":0,"x_max":0,"o":"m 624 664 l 592 535 b 378 679 556 639 482 679 b 90 332 201 679 90 567 b 378 -15 90 97 201 -15 b 589 118 479 -15 550 22 l 589 57 b 338 -253 589 -157 501 -253 b 104 -182 263 -253 163 -226 l 85 -207 b 367 -304 146 -256 243 -304 b 708 86 589 -304 708 -182 l 708 664 z m 403 636 b 589 332 525 636 589 538 b 403 28 589 126 525 28 b 217 332 281 28 217 125 b 403 636 217 539 281 636 z m 376 972 l 206 733 l 238 733 l 417 896 l 596 733 l 629 733 l 458 972 z "},"ģ":{"ha":813,"x_min":0,"x_max":0,"o":"m 624 664 l 592 535 b 378 679 556 639 482 679 b 90 332 201 679 90 567 b 378 -15 90 97 201 -15 b 589 118 479 -15 550 22 l 589 57 b 338 -253 589 -157 501 -253 b 104 -182 263 -253 163 -226 l 85 -207 b 367 -304 146 -256 243 -304 b 708 86 589 -304 708 -182 l 708 664 z m 403 636 b 589 332 525 636 589 538 b 403 28 589 126 525 28 b 217 332 281 28 217 125 b 403 636 217 539 281 636 z m 451 792 b 397 856 451 836 428 856 b 361 839 383 856 371 850 b 474 983 361 882 403 946 l 464 1000 b 313 800 390 965 313 899 b 383 718 313 743 343 718 b 451 792 421 718 451 744 z "},"ġ":{"ha":813,"x_min":0,"x_max":0,"o":"m 624 664 l 592 535 b 378 679 556 639 482 679 b 90 332 201 679 90 567 b 378 -15 90 97 201 -15 b 589 118 479 -15 550 22 l 589 57 b 338 -253 589 -157 501 -253 b 104 -182 263 -253 163 -226 l 85 -207 b 367 -304 146 -256 243 -304 b 708 86 589 -304 708 -182 l 708 664 z m 403 636 b 589 332 525 636 589 538 b 403 28 589 126 525 28 b 217 332 281 28 217 125 b 403 636 217 539 281 636 z m 349 861 b 415 799 349 825 372 799 b 482 861 458 799 482 825 b 415 931 482 899 460 931 b 349 861 372 931 349 899 z "},"ß":{"ha":814,"x_min":0,"x_max":0,"o":"m 232 761 b 403 997 232 894 275 997 b 565 783 508 997 565 919 b 406 574 565 658 501 574 l 304 574 l 304 529 l 406 529 b 611 289 535 529 611 472 b 418 44 611 113 544 44 l 300 44 l 300 0 l 418 0 b 749 282 629 0 749 97 b 536 558 749 465 642 543 b 689 789 631 575 689 660 b 401 1043 689 940 597 1043 b 104 763 204 1043 104 938 l 104 0 l 232 0 z "},"`":{"ha":211,"x_min":0,"x_max":0,"o":"m 207 733 l 115 972 l -12 972 l 175 733 z "},">":{"ha":751,"x_min":0,"x_max":0,"o":"m 697 365 l 697 414 l 85 665 l 85 610 l 636 389 l 85 139 l 85 83 z "},"«":{"ha":603,"x_min":0,"x_max":0,"o":"m 265 46 l 304 71 l 115 350 l 303 613 l 264 638 l 56 349 z m 496 46 l 535 71 l 346 350 l 533 613 l 494 638 l 286 349 z "},"»":{"ha":603,"x_min":0,"x_max":0,"o":"m 315 349 l 107 638 l 68 613 l 256 350 l 67 71 l 106 46 z m 547 349 l 339 638 l 300 613 l 488 350 l 299 71 l 338 46 z "},"‹":{"ha":372,"x_min":0,"x_max":0,"o":"m 265 46 l 304 71 l 115 350 l 303 613 l 264 638 l 56 349 z "},"›":{"ha":371,"x_min":0,"x_max":0,"o":"m 315 349 l 107 638 l 68 613 l 256 350 l 67 71 l 106 46 z "},"h":{"ha":767,"x_min":0,"x_max":0,"o":"m 668 0 l 668 438 b 438 679 668 600 572 679 b 224 522 321 679 250 613 l 224 1042 l 104 1042 l 104 0 l 224 0 l 224 383 b 410 636 228 563 318 636 b 549 425 497 636 549 571 l 549 0 z "},"ħ":{"ha":765,"x_min":0,"x_max":0,"o":"m 10 856 l 103 856 l 103 0 l 221 0 l 221 383 b 408 636 225 563 317 636 b 546 425 494 636 546 571 l 546 0 l 667 0 l 667 438 b 436 679 667 600 571 679 b 221 518 318 679 247 611 l 221 856 l 432 856 l 432 896 l 221 896 l 221 1042 l 103 1042 l 103 896 l 10 896 z "},"ĥ":{"ha":758,"x_min":0,"x_max":0,"o":"m 660 0 l 660 438 b 429 679 660 600 564 679 b 214 518 311 679 240 611 l 214 1042 l 96 1042 l 96 0 l 214 0 l 214 383 b 401 636 218 563 310 636 b 539 425 488 636 539 571 l 539 0 z m 113 1315 l -58 1076 l -26 1076 l 153 1239 l 332 1076 l 365 1076 l 194 1315 z "},"˝":{"ha":660,"x_min":0,"x_max":0,"o":"m 165 733 l 367 972 l 233 972 l 133 733 z m 375 733 l 578 972 l 443 972 l 344 733 z "},"-":{"ha":607,"x_min":0,"x_max":0,"o":"m 514 367 l 514 411 l 93 411 l 93 367 z "},"i":{"ha":306,"x_min":0,"x_max":0,"o":"m 89 0 l 208 0 l 208 664 l 89 664 z m 78 886 b 153 815 78 844 110 815 b 226 886 196 815 226 844 b 153 960 226 931 196 960 b 78 886 110 960 78 931 z "},"í":{"ha":328,"x_min":0,"x_max":0,"o":"m 104 0 l 224 0 l 224 664 l 104 664 z m 156 733 l 344 972 l 217 972 l 125 733 z "},"ĭ":{"ha":328,"x_min":0,"x_max":0,"o":"m 104 0 l 224 0 l 224 664 l 104 664 z m 293 939 b 160 828 293 874 254 828 b 26 939 64 828 26 881 l -1 939 b 160 757 -1 826 54 757 b 321 939 265 757 321 826 z "},"î":{"ha":328,"x_min":0,"x_max":0,"o":"m 104 0 l 224 0 l 224 664 l 104 664 z m 121 972 l -50 733 l -18 733 l 161 896 l 340 733 l 374 733 l 203 972 z "},"ï":{"ha":328,"x_min":0,"x_max":0,"o":"m 104 0 l 224 0 l 224 664 l 104 664 z m -31 854 b 38 788 -31 817 -7 788 b 106 854 81 788 106 817 b 38 925 106 893 81 925 b -31 854 -7 925 -31 893 z m 213 854 b 281 788 213 817 236 788 b 347 854 324 788 347 817 b 281 925 347 893 324 925 b 213 854 236 925 213 893 z "},"ì":{"ha":328,"x_min":0,"x_max":0,"o":"m 104 0 l 224 0 l 224 664 l 104 664 z m 196 733 l 104 972 l -24 972 l 164 733 z "},"ī":{"ha":328,"x_min":0,"x_max":0,"o":"m 104 0 l 224 0 l 224 664 l 104 664 z m -15 839 l 338 839 l 338 881 l -15 881 z "},"į":{"ha":321,"x_min":0,"x_max":0,"o":"m 93 0 l 138 0 b -18 -204 64 -60 -18 -125 b 108 -308 -18 -267 22 -308 b 254 -247 174 -308 215 -283 l 233 -222 b 147 -253 207 -243 175 -253 b 82 -194 103 -253 82 -229 b 181 0 82 -139 115 -67 l 214 0 l 214 664 l 93 664 z m 74 900 b 147 829 74 858 104 829 b 222 900 192 829 222 858 b 147 974 222 943 192 974 b 74 900 104 974 74 943 z "},"ĩ":{"ha":328,"x_min":0,"x_max":0,"o":"m 104 0 l 224 0 l 224 664 l 104 664 z m 307 931 b 268 861 307 875 293 861 b 63 931 218 861 132 931 b -21 786 3 931 -21 881 l 8 786 b 54 856 8 836 28 856 b 261 786 100 856 199 786 b 338 931 314 786 338 828 z "},"j":{"ha":361,"x_min":0,"x_max":0,"o":"m 142 886 b 215 815 142 844 172 815 b 290 886 258 815 290 844 b 215 960 290 931 258 960 b 142 886 172 960 142 931 z m -15 -306 b 275 53 154 -272 275 -160 l 275 664 l 154 664 l 154 44 b -22 -276 154 -164 115 -240 z "},"ĵ":{"ha":315,"x_min":0,"x_max":0,"o":"m -60 -306 b 231 53 110 -272 231 -160 l 231 664 l 110 664 l 110 44 b -67 -276 110 -164 71 -240 z m 131 972 l -40 733 l -8 733 l 171 896 l 350 733 l 383 733 l 213 972 z "},"k":{"ha":718,"x_min":0,"x_max":0,"o":"m 104 0 l 224 0 l 224 246 l 335 354 l 557 0 l 692 0 l 421 438 l 653 664 l 593 664 l 224 301 l 224 1042 l 104 1042 z "},"ķ":{"ha":713,"x_min":0,"x_max":0,"o":"m 104 0 l 224 0 l 224 246 l 335 354 l 557 0 l 692 0 l 421 438 l 653 664 l 593 664 l 224 301 l 224 1042 l 104 1042 z m 304 -150 b 349 -203 304 -186 324 -203 b 381 -189 360 -203 372 -199 b 282 -319 381 -218 344 -276 l 292 -333 b 419 -160 358 -293 419 -235 b 361 -87 419 -110 393 -87 b 304 -150 329 -87 304 -108 z "},"l":{"ha":328,"x_min":0,"x_max":0,"o":"m 104 0 l 224 0 l 224 1042 l 104 1042 z "},"ĺ":{"ha":311,"x_min":0,"x_max":0,"o":"m 104 0 l 224 0 l 224 1042 l 104 1042 z m 181 1101 l 369 1340 l 242 1340 l 150 1101 z "},"ľ":{"ha":381,"x_min":0,"x_max":0,"o":"m 104 0 l 224 0 l 224 1042 l 104 1042 z m 318 1008 b 378 938 318 960 344 938 b 418 956 393 938 407 943 b 293 796 418 908 372 838 l 304 776 b 472 999 386 815 472 889 b 394 1090 472 1063 439 1090 b 318 1008 351 1090 318 1061 z "},"ļ":{"ha":324,"x_min":0,"x_max":0,"o":"m 103 0 l 222 0 l 222 1042 l 103 1042 z m 93 -150 b 138 -203 93 -186 113 -203 b 169 -189 149 -203 161 -199 b 71 -319 169 -218 133 -276 l 81 -333 b 208 -160 147 -293 208 -235 b 150 -87 208 -110 182 -87 b 93 -150 118 -87 93 -108 z "},"ŀ":{"ha":440,"x_min":0,"x_max":0,"o":"m 299 589 b 376 514 299 543 328 514 b 454 589 424 514 454 543 b 376 667 454 633 424 667 b 299 589 328 667 299 633 z m 104 0 l 224 0 l 224 1042 l 104 1042 z "},"<":{"ha":751,"x_min":0,"x_max":0,"o":"m 667 83 l 667 139 l 115 389 l 667 610 l 667 665 l 54 414 l 54 365 z "},"¬":{"ha":888,"x_min":0,"x_max":0,"o":"m 785 204 l 785 549 l 88 549 l 88 504 l 660 504 l 660 204 z "},"ł":{"ha":446,"x_min":0,"x_max":0,"o":"m 51 339 l 169 431 l 169 0 l 289 0 l 289 525 l 410 619 l 410 676 l 289 581 l 289 1042 l 169 1042 l 169 488 l 51 394 z "},"m":{"ha":1117,"x_min":0,"x_max":0,"o":"m 1018 0 l 1018 450 b 801 679 1018 625 904 679 b 608 546 697 679 632 622 b 413 679 576 643 488 679 b 224 542 314 679 244 621 l 224 664 l 104 664 l 104 0 l 224 0 l 224 403 b 376 636 226 565 301 636 b 501 453 456 636 501 568 l 501 0 l 621 0 l 621 419 b 771 636 624 589 700 636 b 897 449 849 636 897 576 l 897 0 z "},"¯":{"ha":564,"x_min":0,"x_max":0,"o":"m 111 839 l 464 839 l 464 881 l 111 881 z "},"−":{"ha":728,"x_min":0,"x_max":0,"o":"m 696 340 l 696 414 l 17 414 l 17 340 z "},"µ":{"ha":774,"x_min":0,"x_max":0,"o":"m 535 664 l 535 264 b 363 35 531 89 449 35 b 239 213 272 35 242 115 l 239 664 l 119 664 l 119 -347 l 239 -347 l 239 11 b 350 -12 274 -6 313 -12 b 535 124 450 -12 517 56 l 535 3 l 656 3 l 656 664 z "},"×":{"ha":706,"x_min":0,"x_max":0,"o":"m 668 658 l 618 710 l 351 436 l 90 703 l 39 650 l 300 383 l 32 108 l 82 58 l 350 333 l 622 57 l 675 108 l 401 386 z "},"n":{"ha":767,"x_min":0,"x_max":0,"o":"m 224 664 l 104 664 l 104 0 l 224 0 l 224 383 b 410 636 228 563 318 636 b 549 425 497 636 549 571 l 549 0 l 668 0 l 668 438 b 438 679 668 600 572 679 b 224 518 321 679 249 611 z "},"ń":{"ha":767,"x_min":0,"x_max":0,"o":"m 224 664 l 104 664 l 104 0 l 224 0 l 224 383 b 410 636 228 563 318 636 b 549 425 497 636 549 571 l 549 0 l 668 0 l 668 438 b 438 679 668 600 572 679 b 224 518 321 679 249 611 z m 388 733 l 576 972 l 449 972 l 357 733 z "},"ŉ":{"ha":767,"x_min":0,"x_max":0,"o":"m 224 664 l 104 664 l 104 0 l 224 0 l 224 383 b 410 636 228 563 318 636 b 549 425 497 636 549 571 l 549 0 l 668 0 l 668 438 b 438 679 668 600 572 679 b 224 518 321 679 249 611 z m 108 953 b 153 900 108 917 128 900 b 185 914 164 900 176 904 b 86 783 185 885 149 826 l 96 769 b 224 943 163 810 224 868 b 165 1015 224 993 197 1015 b 108 953 133 1015 108 994 z "},"ň":{"ha":767,"x_min":0,"x_max":0,"o":"m 224 664 l 104 664 l 104 0 l 224 0 l 224 383 b 410 636 228 563 318 636 b 549 425 497 636 549 571 l 549 0 l 668 0 l 668 438 b 438 679 668 600 572 679 b 224 518 321 679 249 611 z m 431 735 l 601 974 l 568 974 l 389 815 l 210 974 l 178 974 l 349 735 z "},"ņ":{"ha":767,"x_min":0,"x_max":0,"o":"m 224 664 l 104 664 l 104 0 l 224 0 l 224 383 b 410 636 228 563 318 636 b 549 425 497 636 549 571 l 549 0 l 668 0 l 668 438 b 438 679 668 600 572 679 b 224 518 321 679 249 611 z m 336 -150 b 381 -203 336 -186 356 -203 b 413 -189 392 -203 404 -199 b 314 -319 413 -218 376 -276 l 324 -333 b 451 -160 390 -293 451 -235 b 393 -87 451 -110 425 -87 b 336 -150 361 -87 336 -108 z "},"₉":{"ha":583,"x_min":0,"x_max":0,"o":"m 217 -279 b 119 -243 183 -279 146 -271 l 103 -258 b 247 -315 136 -294 185 -315 b 517 57 379 -315 517 -212 b 286 383 517 301 419 383 b 68 164 147 383 68 294 b 267 -53 68 11 171 -53 b 407 44 335 -53 383 -21 b 217 -279 400 -214 299 -279 z m 290 -17 b 178 168 222 -17 178 43 b 288 351 178 289 214 351 b 406 136 350 351 396 304 b 290 -17 396 18 336 -17 z "},"":{"ha":701,"x_min":0,"x_max":0,"o":"m 256 -176 b 128 -131 213 -176 163 -165 l 107 -149 b 289 -219 150 -193 213 -219 b 631 260 451 -219 631 -93 b 339 679 631 574 511 679 b 67 399 163 679 67 563 b 321 119 67 203 196 119 b 506 249 407 119 472 161 b 256 -176 499 -85 365 -176 z m 346 164 b 192 403 253 164 192 243 b 340 639 192 554 240 639 b 503 357 431 639 492 574 b 346 164 489 206 407 164 z "},"⁹":{"ha":583,"x_min":0,"x_max":0,"o":"m 217 332 b 119 368 183 332 146 340 l 103 353 b 247 296 136 317 185 296 b 517 668 379 296 517 399 b 286 994 517 913 419 994 b 68 775 147 994 68 906 b 267 558 68 622 171 558 b 407 656 335 558 383 590 b 217 332 400 397 299 332 z m 290 594 b 178 779 222 594 178 654 b 288 963 178 900 214 963 b 406 747 350 963 396 915 b 290 594 396 629 336 594 z "},"ñ":{"ha":767,"x_min":0,"x_max":0,"o":"m 224 664 l 104 664 l 104 0 l 224 0 l 224 383 b 410 636 228 563 318 636 b 549 425 497 636 549 571 l 549 0 l 668 0 l 668 438 b 438 679 668 600 572 679 b 224 518 321 679 249 611 z m 539 931 b 500 861 539 875 525 861 b 294 931 450 861 364 931 b 211 786 235 931 211 881 l 240 786 b 286 856 240 836 260 856 b 493 786 332 856 431 786 b 569 931 546 786 569 828 z "},"#":{"ha":806,"x_min":0,"x_max":0,"o":"m 733 632 l 733 674 l 588 674 l 647 972 l 600 972 l 540 674 l 335 674 l 394 972 l 347 972 l 289 674 l 125 674 l 125 632 l 281 632 l 224 347 l 67 347 l 67 306 l 215 306 l 156 0 l 203 0 l 263 306 l 467 306 l 407 0 l 454 0 l 514 306 l 692 306 l 692 347 l 522 347 l 579 632 z m 326 632 l 532 632 l 475 347 l 271 347 z "},"o":{"ha":769,"x_min":0,"x_max":0,"o":"m 703 339 b 385 679 703 561 578 679 b 67 339 192 679 67 561 b 385 -14 67 117 189 -14 b 703 339 582 -14 703 117 z m 188 339 b 385 640 188 539 261 640 b 582 339 510 640 582 539 b 385 25 582 139 510 25 b 188 339 261 25 188 139 z "},"ó":{"ha":769,"x_min":0,"x_max":0,"o":"m 703 339 b 385 679 703 561 578 679 b 67 339 192 679 67 561 b 385 -14 67 117 189 -14 b 703 339 582 -14 703 117 z m 188 339 b 385 640 188 539 261 640 b 582 339 510 640 582 539 b 385 25 582 139 510 25 b 188 339 261 25 188 139 z m 381 733 l 569 972 l 442 972 l 350 733 z "},"ŏ":{"ha":769,"x_min":0,"x_max":0,"o":"m 703 339 b 385 679 703 561 578 679 b 67 339 192 679 67 561 b 385 -14 67 117 189 -14 b 703 339 582 -14 703 117 z m 188 339 b 385 640 188 539 261 640 b 582 339 510 640 582 539 b 385 25 582 139 510 25 b 188 339 261 25 188 139 z m 518 939 b 385 828 518 874 479 828 b 251 939 289 828 251 881 l 224 939 b 385 757 224 826 279 757 b 546 939 490 757 546 826 z "},"ô":{"ha":769,"x_min":0,"x_max":0,"o":"m 703 339 b 385 679 703 561 578 679 b 67 339 192 679 67 561 b 385 -14 67 117 189 -14 b 703 339 582 -14 703 117 z m 188 339 b 385 640 188 539 261 640 b 582 339 510 640 582 539 b 385 25 582 139 510 25 b 188 339 261 25 188 139 z m 347 972 l 176 733 l 208 733 l 388 896 l 567 733 l 600 733 l 429 972 z "},"ö":{"ha":769,"x_min":0,"x_max":0,"o":"m 703 339 b 385 679 703 561 578 679 b 67 339 192 679 67 561 b 385 -14 67 117 189 -14 b 703 339 582 -14 703 117 z m 188 339 b 385 640 188 539 261 640 b 582 339 510 640 582 539 b 385 25 582 139 510 25 b 188 339 261 25 188 139 z m 193 854 b 261 788 193 817 217 788 b 329 854 304 788 329 817 b 261 925 329 893 304 925 b 193 854 217 925 193 893 z m 436 854 b 504 788 436 817 460 788 b 571 854 547 788 571 817 b 504 925 571 893 547 925 b 436 854 460 925 436 893 z "},"œ":{"ha":1247,"x_min":0,"x_max":0,"o":"m 899 679 b 647 553 789 679 700 639 b 385 679 593 636 501 679 b 67 339 192 679 67 561 b 385 -14 67 117 189 -14 b 646 115 501 -14 592 32 b 911 -14 701 25 797 -14 b 1168 101 1050 -14 1121 49 l 1144 121 b 929 35 1096 75 1024 35 b 717 332 799 35 717 128 l 1182 332 l 1182 365 b 899 679 1182 578 1076 679 z m 188 339 b 385 640 188 539 261 640 b 582 339 510 640 582 539 b 385 25 582 139 510 25 b 188 339 261 25 188 139 z m 899 643 b 1061 369 1010 643 1060 529 l 718 369 b 899 643 725 549 789 643 z "},"˛":{"ha":431,"x_min":0,"x_max":0,"o":"m 44 -204 b 171 -308 44 -267 85 -308 b 317 -247 236 -308 278 -283 l 296 -222 b 210 -253 269 -243 238 -253 b 144 -194 165 -253 144 -229 b 243 0 144 -139 178 -67 l 200 0 b 44 -204 126 -60 44 -125 z "},"ò":{"ha":769,"x_min":0,"x_max":0,"o":"m 703 339 b 385 679 703 561 578 679 b 67 339 192 679 67 561 b 385 -14 67 117 189 -14 b 703 339 582 -14 703 117 z m 188 339 b 385 640 188 539 261 640 b 582 339 510 640 582 539 b 385 25 582 139 510 25 b 188 339 261 25 188 139 z m 421 733 l 329 972 l 201 972 l 389 733 z "},"ő":{"ha":769,"x_min":0,"x_max":0,"o":"m 703 339 b 385 679 703 561 578 679 b 67 339 192 679 67 561 b 385 -14 67 117 189 -14 b 703 339 582 -14 703 117 z m 188 339 b 385 640 188 539 261 640 b 582 339 510 640 582 539 b 385 25 582 139 510 25 b 188 339 261 25 188 139 z m 292 733 l 493 972 l 360 972 l 260 733 z m 501 733 l 704 972 l 569 972 l 471 733 z "},"ō":{"ha":769,"x_min":0,"x_max":0,"o":"m 703 339 b 385 679 703 561 578 679 b 67 339 192 679 67 561 b 385 -14 67 117 189 -14 b 703 339 582 -14 703 117 z m 188 339 b 385 640 188 539 261 640 b 582 339 510 640 582 539 b 385 25 582 139 510 25 b 188 339 261 25 188 139 z m 210 839 l 563 839 l 563 881 l 210 881 z "},"½":{"ha":1435,"x_min":0,"x_max":0,"o":"m 928 0 l 1343 0 l 1357 82 b 1267 72 1333 72 1290 72 l 1015 72 l 1115 165 b 1343 506 1238 279 1343 386 b 1146 689 1343 615 1265 689 b 931 544 1031 689 968 618 l 951 533 b 1113 632 989 593 1044 632 b 1235 494 1189 632 1235 582 b 1032 139 1235 385 1142 260 l 928 25 z m 1001 1014 l 925 1014 l 315 -47 l 396 -47 z m 44 854 l 149 886 l 149 292 l 251 292 l 251 981 l 229 981 l 36 876 z "},"₁":{"ha":351,"x_min":0,"x_max":0,"o":"m 76 257 l 181 289 l 181 -306 l 283 -306 l 283 383 l 261 383 l 68 279 z "},"":{"ha":410,"x_min":0,"x_max":0,"o":"m 46 542 l 179 578 l 179 0 l 296 0 l 296 679 l 268 679 l 36 571 z "},"¼":{"ha":1490,"x_min":0,"x_max":0,"o":"m 44 854 l 149 886 l 149 292 l 251 292 l 251 981 l 229 981 l 36 876 z m 858 139 l 1124 139 l 1124 0 l 1226 0 l 1226 139 l 1326 139 l 1326 211 l 1226 211 l 1226 682 l 1204 682 l 858 176 z m 924 211 l 1124 519 l 1124 211 z m 1001 1014 l 925 1014 l 315 -47 l 396 -47 z "},"¹":{"ha":351,"x_min":0,"x_max":0,"o":"m 76 868 l 181 900 l 181 306 l 283 306 l 283 994 l 261 994 l 68 890 z "},"ª":{"ha":619,"x_min":0,"x_max":0,"o":"m 283 900 b 410 740 346 900 410 872 l 410 717 l 332 717 b 99 575 169 717 99 661 b 257 447 99 500 149 447 b 411 529 339 447 389 478 l 433 453 l 513 453 l 513 728 b 308 932 513 881 413 932 b 138 863 231 932 178 900 l 153 844 b 283 900 183 874 225 900 z m 410 635 b 288 482 410 515 339 482 b 204 575 242 482 204 507 b 332 690 204 654 253 690 l 410 690 z "},"º":{"ha":658,"x_min":0,"x_max":0,"o":"m 511 694 b 279 932 511 850 421 932 b 47 694 139 932 47 850 b 279 447 47 539 138 447 b 511 694 421 447 511 539 z m 151 694 b 279 904 151 838 200 904 b 407 694 358 904 407 838 b 279 475 407 551 358 475 b 151 694 200 475 151 551 z "},"ø":{"ha":776,"x_min":0,"x_max":0,"o":"m 174 -64 l 225 22 b 385 -14 271 -1 324 -14 b 703 339 582 -14 703 117 b 586 618 703 468 660 561 l 651 725 l 600 725 l 549 642 b 385 679 503 667 447 679 b 67 339 192 679 67 561 b 188 46 67 206 110 106 l 121 -64 z m 188 339 b 385 640 188 539 261 640 b 514 585 438 640 482 621 l 232 119 b 188 339 203 172 188 246 z m 582 339 b 385 25 582 139 510 25 b 260 79 335 25 292 43 l 542 544 b 582 339 568 494 582 426 z "},"ǿ":{"ha":776,"x_min":0,"x_max":0,"o":"m 179 -64 l 229 19 b 385 -14 274 -1 325 -14 b 703 339 582 -14 703 117 b 590 615 703 465 661 558 l 657 725 l 604 725 l 553 640 b 385 679 506 665 449 679 b 67 339 192 679 67 561 b 192 43 67 203 111 101 l 126 -64 z m 188 339 b 385 640 188 539 261 640 b 517 582 439 640 485 621 l 235 115 b 188 339 204 168 188 243 z m 582 339 b 385 25 582 139 510 25 b 264 75 336 25 296 42 l 544 539 b 582 339 568 490 582 424 z m 388 774 l 576 1013 l 449 1013 l 357 774 z "},"õ":{"ha":769,"x_min":0,"x_max":0,"o":"m 703 339 b 385 679 703 561 578 679 b 67 339 192 679 67 561 b 385 -14 67 117 189 -14 b 703 339 582 -14 703 117 z m 188 339 b 385 640 188 539 261 640 b 582 339 510 640 582 539 b 385 25 582 139 510 25 b 188 339 261 25 188 139 z m 532 931 b 493 861 532 875 518 861 b 288 931 443 861 357 931 b 204 786 228 931 204 881 l 233 786 b 279 856 233 836 253 856 b 486 786 325 856 424 786 b 563 931 539 786 563 828 z "},"p":{"ha":781,"x_min":0,"x_max":0,"o":"m 104 -294 l 225 -294 l 224 -53 l 224 96 b 425 -15 264 17 332 -15 b 713 332 601 -15 713 97 b 425 679 713 567 601 679 b 224 568 332 679 264 647 l 224 664 l 104 664 z m 400 636 b 586 332 522 636 586 539 b 400 28 586 125 522 28 b 213 332 278 28 213 126 b 400 636 213 538 278 636 z "},"¶":{"ha":714,"x_min":0,"x_max":0,"o":"m 410 -231 l 410 929 l 475 929 l 475 -231 l 581 -231 l 581 972 l 304 972 b 40 701 132 972 40 846 b 304 435 40 550 132 435 l 304 -231 z "},"(":{"ha":431,"x_min":0,"x_max":0,"o":"m 203 389 b 399 1042 203 615 268 885 l 382 1060 b 67 389 196 935 67 675 b 382 -283 67 101 204 -156 l 397 -265 b 203 389 274 -108 203 163 z "},")":{"ha":431,"x_min":0,"x_max":0,"o":"m 228 389 b 33 -265 228 163 157 -108 l 49 -283 b 364 389 226 -156 364 101 b 49 1060 364 675 235 935 l 32 1042 b 228 389 163 885 228 615 z "},"%":{"ha":1133,"x_min":0,"x_max":0,"o":"m 503 751 b 274 988 503 907 408 988 b 44 751 139 988 44 907 b 274 515 44 597 139 515 b 503 751 408 515 503 597 z m 401 751 b 274 556 401 622 349 556 b 146 751 199 556 146 622 b 274 947 146 882 199 947 b 401 751 349 947 401 882 z m 1090 225 b 860 461 1090 381 994 461 b 631 225 726 461 631 381 b 860 -11 631 71 726 -11 b 1090 225 994 -11 1090 71 z m 988 225 b 860 29 988 96 936 29 b 732 225 785 29 732 96 b 860 421 732 356 785 421 b 988 225 936 421 988 356 z m 264 -42 l 949 1000 l 861 1000 l 176 -42 z "},".":{"ha":321,"x_min":0,"x_max":0,"o":"m 83 61 b 160 -14 83 15 111 -14 b 238 61 208 -14 238 15 b 160 139 238 106 208 139 b 83 61 111 139 83 106 z "},"·":{"ha":333,"x_min":0,"x_max":0,"o":"m 89 478 b 167 403 89 432 117 403 b 243 478 214 403 243 432 b 167 556 243 522 214 556 b 89 478 117 556 89 522 z "},"‰":{"ha":1817,"x_min":0,"x_max":0,"o":"m 1168 225 b 938 461 1168 381 1072 461 b 708 225 803 461 708 381 b 938 -11 708 71 803 -11 b 1168 225 1072 -11 1168 71 z m 1067 225 b 938 29 1067 96 1013 29 b 810 225 863 29 810 96 b 938 421 810 356 863 421 b 1067 225 1013 421 1067 356 z m 1743 225 b 1513 461 1743 381 1647 461 b 1283 225 1378 461 1283 381 b 1513 -11 1283 71 1378 -11 b 1743 225 1647 -11 1743 71 z m 1642 225 b 1513 29 1642 96 1589 29 b 1385 225 1438 29 1385 96 b 1513 421 1385 356 1438 421 b 1642 225 1589 421 1642 356 z m 511 751 b 282 988 511 907 415 988 b 51 751 147 988 51 907 b 282 515 51 597 147 515 b 511 751 415 515 511 597 z m 410 751 b 282 556 410 622 357 556 b 153 751 206 556 153 622 b 282 947 153 882 206 947 b 410 751 357 947 410 882 z m 310 -42 l 996 1000 l 908 1000 l 222 -42 z "},"+":{"ha":726,"x_min":0,"x_max":0,"o":"m 390 725 l 318 725 l 318 414 l 17 414 l 17 340 l 318 340 l 318 11 l 390 11 l 390 340 l 696 340 l 696 414 l 390 414 z "},"±":{"ha":686,"x_min":0,"x_max":0,"o":"m 707 -118 l 707 -43 l 28 -43 l 28 -118 z m 400 725 l 328 725 l 328 414 l 26 414 l 26 340 l 328 340 l 328 11 l 400 11 l 400 340 l 706 340 l 706 414 l 400 414 z "},"q":{"ha":790,"x_min":0,"x_max":0,"o":"m 354 -15 b 567 122 457 -15 529 24 l 567 -294 l 686 -294 l 686 664 l 600 664 l 569 542 l 569 533 b 354 679 532 638 460 679 b 67 332 178 679 67 567 b 354 -15 67 97 178 -15 z m 379 636 b 567 332 501 636 567 538 b 379 28 567 126 501 28 b 193 332 257 28 193 125 b 379 636 193 539 257 636 z "},"?":{"ha":633,"x_min":0,"x_max":0,"o":"m 201 61 b 278 -14 201 15 229 -14 b 356 61 325 -14 356 15 b 278 139 356 106 325 139 b 201 61 229 139 201 106 z m 282 918 b 447 732 368 918 447 864 b 251 271 447 519 251 536 l 251 183 l 292 183 l 292 271 b 578 746 292 494 578 499 b 318 985 578 894 474 985 b 39 814 182 985 90 910 l 63 796 b 282 918 117 879 199 918 z "},"¿":{"ha":621,"x_min":0,"x_max":0,"o":"m 279 606 b 357 531 279 560 308 531 b 433 606 404 531 433 560 b 357 683 433 649 404 683 b 279 606 308 683 279 649 z m 349 -267 b 567 -146 432 -267 514 -228 l 592 -164 b 313 -333 539 -260 449 -333 b 53 -96 157 -333 53 -243 b 339 379 53 153 339 157 l 339 467 l 379 467 l 379 381 b 182 -81 379 114 182 132 b 349 -267 182 -214 263 -267 z "},"\"":{"ha":501,"x_min":0,"x_max":0,"o":"m 115 692 l 144 692 l 188 986 l 72 986 z m 346 692 l 375 692 l 418 986 l 303 986 z "},"„":{"ha":551,"x_min":0,"x_max":0,"o":"m 83 57 b 143 -14 83 8 110 -14 b 183 4 158 -14 172 -8 b 58 -156 183 -43 138 -114 l 69 -175 b 238 47 151 -136 238 -62 b 160 139 238 111 204 139 b 83 57 117 139 83 110 z m 310 57 b 369 -14 310 8 336 -14 b 410 4 385 -14 399 -8 b 285 -156 410 -43 364 -114 l 296 -175 b 464 47 378 -136 464 -62 b 386 139 464 111 431 139 b 310 57 343 139 310 110 z "},"“":{"ha":528,"x_min":0,"x_max":0,"o":"m 222 808 b 163 879 222 857 196 879 b 122 861 147 879 133 874 b 247 1021 122 908 168 979 l 236 1040 b 68 818 154 1001 68 928 b 146 726 68 754 101 726 b 222 808 189 726 222 756 z m 447 808 b 388 879 447 857 421 879 b 347 861 372 879 358 874 b 472 1021 347 908 393 979 l 461 1040 b 293 818 379 1001 293 928 b 371 726 293 754 326 726 b 447 808 414 726 447 756 z "},"”":{"ha":542,"x_min":0,"x_max":0,"o":"m 92 960 b 151 889 92 911 118 889 b 192 907 167 889 181 894 b 67 747 192 860 146 789 l 78 728 b 246 950 160 767 246 840 b 168 1042 246 1014 213 1042 b 92 960 125 1042 92 1013 z m 317 960 b 376 889 317 911 343 889 b 417 907 392 889 406 894 b 292 747 417 860 371 789 l 303 728 b 471 950 385 767 471 840 b 393 1042 471 1014 438 1042 b 317 960 350 1042 317 1013 z "},"‘":{"ha":308,"x_min":0,"x_max":0,"o":"m 222 810 b 163 881 222 858 196 881 b 122 863 147 881 133 875 b 247 1022 122 910 168 981 l 236 1042 b 68 819 154 1003 68 929 b 146 728 68 756 101 728 b 222 810 189 728 222 757 z "},"’":{"ha":307,"x_min":0,"x_max":0,"o":"m 92 960 b 151 889 92 911 118 889 b 192 907 167 889 181 894 b 67 747 192 860 146 789 l 78 728 b 246 950 160 767 246 840 b 168 1042 246 1014 213 1042 b 92 960 125 1042 92 1013 z "},"‚":{"ha":322,"x_min":0,"x_max":0,"o":"m 83 57 b 143 -14 83 8 110 -14 b 183 4 158 -14 172 -8 b 58 -156 183 -43 138 -114 l 69 -175 b 238 47 151 -136 238 -62 b 160 139 238 111 204 139 b 83 57 117 139 83 110 z "},"'":{"ha":271,"x_min":0,"x_max":0,"o":"m 121 692 l 150 692 l 193 986 l 78 986 z "},"r":{"ha":544,"x_min":0,"x_max":0,"o":"m 224 664 l 104 664 l 104 0 l 224 0 l 224 282 b 378 636 228 543 321 636 b 417 564 401 636 417 614 l 417 467 l 525 519 l 525 565 b 406 679 525 642 475 679 b 224 479 311 679 251 596 z "},"ŕ":{"ha":549,"x_min":0,"x_max":0,"o":"m 224 664 l 104 664 l 104 0 l 224 0 l 224 282 b 378 636 228 543 321 636 b 417 564 401 636 417 614 l 417 467 l 525 519 l 525 565 b 406 679 525 642 475 679 b 224 479 311 679 251 596 z m 306 733 l 494 972 l 367 972 l 275 733 z "},"ř":{"ha":549,"x_min":0,"x_max":0,"o":"m 224 664 l 104 664 l 104 0 l 224 0 l 224 282 b 378 636 228 543 321 636 b 417 564 401 636 417 614 l 417 467 l 525 519 l 525 565 b 406 679 525 642 475 679 b 224 479 311 679 251 596 z m 350 735 l 521 974 l 488 974 l 308 815 l 129 974 l 97 974 l 268 735 z "},"ŗ":{"ha":496,"x_min":0,"x_max":0,"o":"m 478 654 b 401 679 457 671 432 679 b 215 494 311 679 232 604 l 215 664 l 104 664 l 104 0 l 222 0 l 222 308 b 401 636 222 553 329 636 b 457 619 426 636 438 632 z m 111 -150 b 156 -203 111 -186 131 -203 b 188 -189 167 -203 179 -199 b 89 -319 188 -218 151 -276 l 99 -333 b 226 -160 165 -293 226 -235 b 168 -87 226 -110 200 -87 b 111 -150 136 -87 111 -108 z "},"®":{"ha":1146,"x_min":0,"x_max":0,"o":"m 1074 488 b 574 985 1074 797 876 985 b 72 488 271 985 72 797 b 574 -14 72 176 271 -14 b 1074 488 876 -14 1074 176 z m 174 489 b 574 946 174 781 321 946 b 972 489 835 946 972 778 b 574 25 972 200 835 25 b 174 489 318 25 174 200 z m 390 189 l 478 189 l 478 468 l 553 468 l 722 189 l 819 189 l 642 476 b 783 636 731 496 783 547 b 553 811 783 757 696 811 l 390 811 z m 542 781 b 689 636 640 781 689 729 b 540 499 689 544 640 499 l 478 499 l 478 781 z "},"˚":{"ha":624,"x_min":0,"x_max":0,"o":"m 485 856 b 315 972 485 919 432 972 b 147 856 200 972 147 921 b 315 732 147 786 200 732 b 485 856 432 732 485 786 z m 238 856 b 315 943 238 908 265 943 b 394 856 364 943 394 908 b 315 763 394 800 364 763 b 238 856 265 763 238 800 z "},"s":{"ha":597,"x_min":0,"x_max":0,"o":"m 304 679 b 86 506 190 679 86 631 b 449 154 86 268 449 346 b 292 31 449 74 381 31 b 81 103 213 31 139 54 l 58 79 b 303 -14 128 18 206 -14 b 536 193 460 -14 536 74 b 175 539 536 446 175 381 b 313 636 175 596 224 636 b 479 579 383 636 438 611 l 501 604 b 304 679 453 649 394 679 z "},"ś":{"ha":597,"x_min":0,"x_max":0,"o":"m 304 679 b 86 506 190 679 86 631 b 449 154 86 268 449 346 b 292 31 449 74 381 31 b 81 103 213 31 139 54 l 58 79 b 303 -14 128 18 206 -14 b 536 193 460 -14 536 74 b 175 539 536 446 175 381 b 313 636 175 596 224 636 b 479 579 383 636 438 611 l 501 604 b 304 679 453 649 394 679 z m 300 733 l 489 972 l 361 972 l 269 733 z "},"š":{"ha":597,"x_min":0,"x_max":0,"o":"m 304 679 b 86 506 190 679 86 631 b 449 154 86 268 449 346 b 292 31 449 74 381 31 b 81 103 213 31 139 54 l 58 79 b 303 -14 128 18 206 -14 b 536 193 460 -14 536 74 b 175 539 536 446 175 381 b 313 636 175 596 224 636 b 479 579 383 636 438 611 l 501 604 b 304 679 453 649 394 679 z m 344 735 l 515 974 l 482 974 l 303 815 l 124 974 l 92 974 l 263 735 z "},"ş":{"ha":586,"x_min":0,"x_max":0,"o":"m 236 -128 l 278 -128 b 358 -200 325 -128 358 -149 b 271 -274 358 -250 324 -274 b 171 -250 233 -274 199 -262 l 161 -283 b 293 -314 186 -296 231 -314 b 450 -194 396 -314 450 -275 b 318 -87 450 -117 385 -87 b 288 -89 306 -87 293 -87 l 313 -12 b 525 193 456 -6 525 79 b 164 539 525 446 164 381 b 301 636 164 596 213 636 b 468 579 372 636 426 611 l 490 604 b 293 679 442 649 383 679 b 75 506 179 679 75 631 b 438 154 75 268 438 346 b 281 31 438 74 369 31 b 69 103 201 31 128 54 l 47 79 b 274 -14 113 21 185 -10 z "},"ŝ":{"ha":597,"x_min":0,"x_max":0,"o":"m 304 679 b 86 506 190 679 86 631 b 449 154 86 268 449 346 b 292 31 449 74 381 31 b 81 103 213 31 139 54 l 58 79 b 303 -14 128 18 206 -14 b 536 193 460 -14 536 74 b 175 539 536 446 175 381 b 313 636 175 596 224 636 b 479 579 383 636 438 611 l 501 604 b 304 679 453 649 394 679 z m 265 972 l 94 733 l 126 733 l 306 896 l 485 733 l 518 733 l 347 972 z "},"ș":{"ha":586,"x_min":0,"x_max":0,"o":"m 293 679 b 75 506 179 679 75 631 b 438 154 75 268 438 346 b 281 31 438 74 369 31 b 69 103 201 31 128 54 l 47 79 b 292 -14 117 18 194 -14 b 525 193 449 -14 525 74 b 164 539 525 446 164 381 b 301 636 164 596 213 636 b 468 579 372 636 426 611 l 490 604 b 293 679 442 649 383 679 z m 243 -150 b 288 -203 243 -186 263 -203 b 319 -189 299 -203 311 -199 b 221 -319 319 -218 283 -276 l 231 -333 b 358 -160 297 -293 358 -235 b 300 -87 358 -110 332 -87 b 243 -150 268 -87 243 -108 z "},"§":{"ha":615,"x_min":0,"x_max":0,"o":"m 308 983 b 90 810 194 983 90 935 b 250 628 90 701 167 661 b 90 460 161 614 90 563 b 451 108 90 226 451 307 b 296 -15 451 31 382 -15 b 85 58 215 -15 143 10 l 63 35 b 307 -60 132 -28 210 -60 b 540 147 463 -60 540 28 b 436 317 540 236 494 283 b 540 497 506 351 540 417 b 178 843 540 747 178 678 b 317 940 178 900 228 940 b 483 883 386 940 442 915 l 506 908 b 308 983 457 953 397 983 z m 178 493 b 317 590 178 550 228 590 b 353 588 329 590 340 589 b 451 458 408 561 451 526 b 369 347 451 404 418 365 b 178 493 275 385 178 407 z "},";":{"ha":367,"x_min":0,"x_max":0,"o":"m 108 590 b 186 515 108 544 136 515 b 263 590 233 515 263 544 b 186 668 263 633 233 668 b 108 590 136 668 108 633 z m 110 57 b 169 -14 110 8 136 -14 b 210 4 185 -14 199 -8 b 85 -156 210 -43 164 -114 l 96 -175 b 264 47 178 -136 264 -62 b 186 139 264 111 231 139 b 110 57 143 139 110 110 z "},"₇":{"ha":549,"x_min":0,"x_max":0,"o":"m 479 375 l 82 375 l 69 292 b 140 301 82 301 126 301 l 432 301 l 100 -307 l 228 -307 l 479 357 z "},"":{"ha":579,"x_min":0,"x_max":0,"o":"m 553 664 l 47 664 l 31 567 b 121 579 47 579 104 579 l 496 579 l 75 -212 l 222 -212 l 551 642 z "},"⁷":{"ha":549,"x_min":0,"x_max":0,"o":"m 479 986 l 82 986 l 69 903 b 140 913 82 913 126 913 l 432 913 l 100 304 l 228 304 l 479 968 z "},"₆":{"ha":582,"x_min":0,"x_max":0,"o":"m 346 351 b 451 313 381 351 425 342 l 468 329 b 332 383 438 365 390 383 b 68 11 196 383 68 281 b 297 -315 68 -243 163 -315 b 514 -96 435 -315 514 -226 b 315 122 514 58 411 122 b 176 26 247 122 201 90 b 346 351 183 285 268 351 z m 292 85 b 404 -100 361 85 404 25 b 296 -282 404 -221 367 -282 b 178 -64 231 -282 186 -236 b 292 85 188 50 243 85 z "},"":{"ha":699,"x_min":0,"x_max":0,"o":"m 418 847 b 554 797 463 847 518 836 l 575 818 b 401 886 535 863 472 886 b 69 407 232 886 69 760 b 358 -12 69 82 186 -12 b 633 268 536 -12 633 104 b 376 547 633 465 501 547 b 193 421 290 547 226 507 b 418 847 200 757 313 847 z m 354 503 b 506 264 447 503 506 424 b 357 28 506 114 458 28 b 194 310 267 28 206 93 b 354 503 208 460 286 503 z "},"⁶":{"ha":582,"x_min":0,"x_max":0,"o":"m 346 963 b 451 924 381 963 425 953 l 468 940 b 332 994 438 976 390 994 b 68 622 196 994 68 892 b 297 296 68 368 163 296 b 514 515 435 296 514 385 b 315 733 514 669 411 733 b 176 638 247 733 201 701 b 346 963 183 896 268 963 z m 292 696 b 404 511 361 696 404 636 b 296 329 404 390 367 329 b 178 547 231 329 186 375 b 292 696 188 661 243 696 z "},"/":{"ha":561,"x_min":0,"x_max":0,"o":"m 528 1028 l 450 1028 l 33 -54 l 111 -54 z "}," ":{"ha":331,"x_min":0,"x_max":0,"o":""},"£":{"ha":811,"x_min":0,"x_max":0,"o":"m 700 233 b 731 151 715 213 731 185 b 642 69 731 101 701 69 b 307 153 544 69 440 153 b 185 119 265 153 224 142 b 340 421 261 210 340 303 b 339 451 340 431 339 442 l 513 451 l 513 496 l 332 496 b 263 749 313 589 263 653 b 429 936 263 872 335 936 b 628 863 536 936 589 896 l 649 886 b 401 985 597 936 521 985 b 132 739 269 985 132 911 b 203 496 132 631 181 579 l 96 496 l 96 451 l 211 451 b 213 418 213 440 213 429 b 64 -14 213 228 64 107 l 115 -14 b 233 72 115 32 149 72 b 622 -15 368 72 467 -15 b 769 150 749 -15 769 81 b 721 249 769 193 740 231 z "},"t":{"ha":490,"x_min":0,"x_max":0,"o":"m 264 833 l 200 833 l 143 664 l 40 664 l 40 622 l 143 622 l 143 201 b 321 -14 143 46 207 -14 b 457 31 379 -14 414 0 l 440 56 b 357 26 411 35 383 26 b 264 168 304 26 264 57 l 264 622 l 433 622 l 433 664 l 264 664 z "},"ŧ":{"ha":490,"x_min":0,"x_max":0,"o":"m 264 833 l 200 833 l 143 664 l 40 664 l 40 622 l 143 622 l 143 549 l 40 549 l 40 507 l 143 507 l 143 201 b 321 -14 143 46 207 -14 b 457 31 379 -14 414 0 l 440 56 b 357 26 411 35 383 26 b 264 168 304 26 264 57 l 264 507 l 433 507 l 433 549 l 264 549 l 264 622 l 433 622 l 433 664 l 264 664 z "},"ť":{"ha":463,"x_min":0,"x_max":0,"o":"m 264 833 l 200 833 l 143 664 l 40 664 l 40 622 l 143 622 l 143 201 b 321 -14 143 46 207 -14 b 457 31 379 -14 414 0 l 440 56 b 357 26 411 35 383 26 b 264 168 304 26 264 57 l 264 622 l 433 622 l 433 664 l 264 664 z m 369 993 b 421 922 369 944 393 922 b 456 940 433 922 446 928 b 349 781 456 893 417 822 l 358 761 b 501 983 428 800 501 874 b 435 1075 501 1047 474 1075 b 369 993 399 1075 369 1046 z "},"ţ":{"ha":490,"x_min":0,"x_max":0,"o":"m 264 833 l 200 833 l 143 664 l 40 664 l 40 622 l 143 622 l 143 201 b 321 -14 143 46 207 -14 b 457 31 379 -14 414 0 l 440 56 b 357 26 411 35 383 26 b 264 168 304 26 264 57 l 264 622 l 433 622 l 433 664 l 264 664 z m 194 -150 b 239 -203 194 -186 214 -203 b 271 -189 250 -203 263 -199 b 172 -319 271 -218 235 -276 l 182 -333 b 310 -160 249 -293 310 -235 b 251 -87 310 -110 283 -87 b 194 -150 219 -87 194 -108 z "}," ":{"ha":272,"x_min":0,"x_max":0,"o":""},"þ":{"ha":803,"x_min":0,"x_max":0,"o":"m 442 -15 b 729 332 618 -15 729 97 b 442 679 729 567 618 679 b 228 538 338 679 265 639 l 228 904 l 104 904 l 104 -294 l 228 -294 l 228 125 b 442 -15 265 24 338 -15 z m 417 636 b 603 332 539 636 603 539 b 417 28 603 125 539 28 b 231 332 294 28 231 126 b 417 636 231 538 294 636 z "},"₃":{"ha":575,"x_min":0,"x_max":0,"o":"m 488 375 l 126 375 l 113 292 b 189 301 132 301 169 301 l 392 301 l 208 90 l 210 67 l 239 67 b 403 -106 340 67 403 -4 b 253 -272 403 -215 338 -272 b 88 -179 183 -272 117 -236 l 68 -190 b 292 -315 108 -267 179 -315 b 506 -106 415 -315 506 -243 b 264 106 506 11 429 103 l 485 357 z "},"":{"ha":657,"x_min":0,"x_max":0,"o":"m 567 664 l 110 664 l 93 567 b 192 579 117 579 165 579 l 454 579 l 215 300 l 218 269 l 256 269 b 471 46 390 269 471 178 b 275 -172 471 -99 385 -172 b 58 -47 185 -172 94 -125 l 33 -62 b 317 -224 81 -158 174 -224 b 590 44 472 -224 590 -131 b 282 317 590 197 489 314 l 565 642 z "},"¾":{"ha":1560,"x_min":0,"x_max":0,"o":"m 972 139 l 1238 139 l 1238 0 l 1340 0 l 1340 139 l 1440 139 l 1440 211 l 1340 211 l 1340 682 l 1318 682 l 972 176 z m 1038 211 l 1238 519 l 1238 211 z m 1174 1014 l 1097 1014 l 488 -47 l 568 -47 z m 482 972 l 121 972 l 107 889 b 183 899 126 899 164 899 l 386 899 l 203 688 l 204 664 l 233 664 b 397 492 335 664 397 593 b 247 325 397 382 332 325 b 82 418 178 325 111 361 l 63 407 b 286 282 103 331 174 282 b 500 492 410 282 500 354 b 258 703 500 608 424 700 l 479 954 z "},"³":{"ha":575,"x_min":0,"x_max":0,"o":"m 488 986 l 126 986 l 113 903 b 189 913 132 913 169 913 l 392 913 l 208 701 l 210 678 l 239 678 b 403 506 340 678 403 607 b 253 339 403 396 338 339 b 88 432 183 339 117 375 l 68 421 b 292 296 108 344 179 296 b 506 506 415 296 506 368 b 264 717 506 622 429 714 l 485 968 z "},"˜":{"ha":626,"x_min":0,"x_max":0,"o":"m 451 931 b 413 861 451 875 438 861 b 207 931 363 861 276 931 b 124 786 147 931 124 881 l 153 786 b 199 856 153 836 172 856 b 406 786 244 856 343 786 b 482 931 458 786 482 828 z "},"™":{"ha":1260,"x_min":0,"x_max":0,"o":"m 211 290 l 321 290 l 321 936 l 497 936 l 497 971 l 25 971 l 25 936 l 211 936 z m 1140 290 l 1250 290 l 1200 971 l 1083 971 l 889 361 l 689 971 l 571 971 l 529 290 l 568 290 l 608 879 l 806 290 l 906 290 l 1093 867 z "},"₂":{"ha":565,"x_min":0,"x_max":0,"o":"m 286 383 b 71 239 171 383 108 313 l 92 228 b 253 326 129 288 185 326 b 375 189 329 326 375 276 b 172 -167 375 79 282 -46 l 68 -281 l 68 -306 l 483 -306 l 497 -224 b 407 -233 474 -233 431 -233 l 156 -233 l 256 -140 b 483 200 378 -26 483 81 b 286 383 483 310 406 383 z "},"":{"ha":654,"x_min":0,"x_max":0,"o":"m 324 679 b 56 535 181 679 101 610 l 78 519 b 290 614 124 576 201 614 b 451 482 390 614 451 568 b 201 144 451 381 360 261 l 50 25 l 50 0 l 578 0 l 594 89 b 478 81 563 81 508 81 l 185 81 l 299 164 b 576 494 453 276 576 379 b 324 679 576 606 478 679 z "},"²":{"ha":565,"x_min":0,"x_max":0,"o":"m 286 994 b 71 850 171 994 108 924 l 92 839 b 253 938 129 899 185 938 b 375 800 329 938 375 888 b 172 444 375 690 282 565 l 68 331 l 68 306 l 483 306 l 497 388 b 407 378 474 378 431 378 l 156 378 l 256 471 b 483 811 378 585 483 692 b 286 994 483 921 406 994 z "},"u":{"ha":746,"x_min":0,"x_max":0,"o":"m 521 664 l 521 232 b 350 29 521 86 433 29 b 217 218 258 29 217 100 l 217 664 l 97 664 l 97 206 b 321 -14 97 43 207 -14 b 536 124 438 -14 518 47 l 561 -4 l 642 -4 l 642 664 z "},"ú":{"ha":746,"x_min":0,"x_max":0,"o":"m 521 664 l 521 232 b 350 29 521 86 433 29 b 217 218 258 29 217 100 l 217 664 l 97 664 l 97 206 b 321 -14 97 43 207 -14 b 536 124 438 -14 518 47 l 561 -4 l 642 -4 l 642 664 z m 378 733 l 567 972 l 439 972 l 347 733 z "},"ŭ":{"ha":746,"x_min":0,"x_max":0,"o":"m 521 664 l 521 232 b 350 29 521 86 433 29 b 217 218 258 29 217 100 l 217 664 l 97 664 l 97 206 b 321 -14 97 43 207 -14 b 536 124 438 -14 518 47 l 561 -4 l 642 -4 l 642 664 z m 515 939 b 382 828 515 874 476 828 b 249 939 286 828 249 881 l 221 939 b 382 757 221 826 276 757 b 543 939 488 757 543 826 z "},"û":{"ha":746,"x_min":0,"x_max":0,"o":"m 521 664 l 521 232 b 350 29 521 86 433 29 b 217 218 258 29 217 100 l 217 664 l 97 664 l 97 206 b 321 -14 97 43 207 -14 b 536 124 438 -14 518 47 l 561 -4 l 642 -4 l 642 664 z m 344 972 l 174 733 l 206 733 l 385 896 l 564 733 l 597 733 l 426 972 z "},"ü":{"ha":746,"x_min":0,"x_max":0,"o":"m 521 664 l 521 232 b 350 29 521 86 433 29 b 217 218 258 29 217 100 l 217 664 l 97 664 l 97 206 b 321 -14 97 43 207 -14 b 536 124 438 -14 518 47 l 561 -4 l 642 -4 l 642 664 z m 192 854 b 260 788 192 817 215 788 b 328 854 303 788 328 817 b 260 925 328 893 303 925 b 192 854 215 925 192 893 z m 435 854 b 503 788 435 817 458 788 b 569 854 546 788 569 817 b 503 925 569 893 546 925 b 435 854 458 925 435 893 z "},"ù":{"ha":746,"x_min":0,"x_max":0,"o":"m 521 664 l 521 232 b 350 29 521 86 433 29 b 217 218 258 29 217 100 l 217 664 l 97 664 l 97 206 b 321 -14 97 43 207 -14 b 536 124 438 -14 518 47 l 561 -4 l 642 -4 l 642 664 z m 419 733 l 328 972 l 200 972 l 388 733 z "},"ű":{"ha":746,"x_min":0,"x_max":0,"o":"m 521 664 l 521 232 b 350 29 521 86 433 29 b 217 218 258 29 217 100 l 217 664 l 97 664 l 97 206 b 321 -14 97 43 207 -14 b 536 124 438 -14 518 47 l 561 -4 l 642 -4 l 642 664 z m 286 733 l 488 972 l 354 972 l 254 733 z m 496 733 l 699 972 l 564 972 l 465 733 z "},"ū":{"ha":746,"x_min":0,"x_max":0,"o":"m 521 664 l 521 232 b 350 29 521 86 433 29 b 217 218 258 29 217 100 l 217 664 l 97 664 l 97 206 b 321 -14 97 43 207 -14 b 536 124 438 -14 518 47 l 561 -4 l 642 -4 l 642 664 z m 207 839 l 560 839 l 560 881 l 207 881 z "},"_":{"ha":660,"x_min":0,"x_max":0,"o":"m 0 -172 l 660 -172 l 660 -128 l 0 -128 z "},"ų":{"ha":746,"x_min":0,"x_max":0,"o":"m 431 -204 b 557 -308 431 -267 471 -308 b 703 -247 622 -308 664 -283 l 682 -222 b 596 -253 656 -243 624 -253 b 531 -194 551 -253 531 -229 b 625 -4 531 -140 563 -69 l 642 -4 l 642 664 l 521 664 l 521 232 b 350 29 521 86 433 29 b 217 218 258 29 217 100 l 217 664 l 97 664 l 97 206 b 321 -14 97 43 207 -14 b 536 124 438 -14 518 47 l 561 -4 l 581 -4 b 431 -204 508 -62 431 -126 z "},"ů":{"ha":746,"x_min":0,"x_max":0,"o":"m 521 664 l 521 232 b 350 29 521 86 433 29 b 217 218 258 29 217 100 l 217 664 l 97 664 l 97 206 b 321 -14 97 43 207 -14 b 536 124 438 -14 518 47 l 561 -4 l 642 -4 l 642 664 z m 551 856 b 382 972 551 919 499 972 b 214 856 267 972 214 921 b 382 732 214 786 267 732 b 551 856 499 732 551 786 z m 304 856 b 382 943 304 908 332 943 b 461 856 431 943 461 908 b 382 763 461 800 431 763 b 304 856 332 763 304 800 z "},"ũ":{"ha":746,"x_min":0,"x_max":0,"o":"m 521 664 l 521 232 b 350 29 521 86 433 29 b 217 218 258 29 217 100 l 217 664 l 97 664 l 97 206 b 321 -14 97 43 207 -14 b 536 124 438 -14 518 47 l 561 -4 l 642 -4 l 642 664 z m 529 931 b 490 861 529 875 515 861 b 285 931 440 861 354 931 b 201 786 225 931 201 881 l 231 786 b 276 856 231 836 250 856 b 483 786 322 856 421 786 b 560 931 536 786 560 828 z "},"v":{"ha":632,"x_min":0,"x_max":0,"o":"m 165 664 l 38 664 l 267 0 l 364 0 l 599 664 l 549 664 l 351 96 z "},"w":{"ha":1033,"x_min":0,"x_max":0,"o":"m 597 667 l 504 667 l 332 115 l 171 664 l 42 664 l 260 0 l 346 0 l 519 567 l 696 0 l 778 0 l 996 664 l 944 664 l 768 115 z "},"ẃ":{"ha":1033,"x_min":0,"x_max":0,"o":"m 597 667 l 504 667 l 332 115 l 171 664 l 42 664 l 260 0 l 346 0 l 519 567 l 696 0 l 778 0 l 996 664 l 944 664 l 768 115 z m 542 733 l 731 972 l 603 972 l 511 733 z "},"ŵ":{"ha":1033,"x_min":0,"x_max":0,"o":"m 597 667 l 504 667 l 332 115 l 171 664 l 42 664 l 260 0 l 346 0 l 519 567 l 696 0 l 778 0 l 996 664 l 944 664 l 768 115 z m 508 972 l 338 733 l 369 733 l 549 896 l 728 733 l 761 733 l 590 972 z "},"ẅ":{"ha":1033,"x_min":0,"x_max":0,"o":"m 597 667 l 504 667 l 332 115 l 171 664 l 42 664 l 260 0 l 346 0 l 519 567 l 696 0 l 778 0 l 996 664 l 944 664 l 768 115 z m 356 854 b 424 788 356 817 379 788 b 492 854 467 788 492 817 b 424 925 492 893 467 925 b 356 854 379 925 356 893 z m 599 854 b 667 788 599 817 622 788 b 733 854 710 788 733 817 b 667 925 733 893 710 925 b 599 854 622 925 599 893 z "},"ẁ":{"ha":1033,"x_min":0,"x_max":0,"o":"m 597 667 l 504 667 l 332 115 l 171 664 l 42 664 l 260 0 l 346 0 l 519 567 l 696 0 l 778 0 l 996 664 l 944 664 l 768 115 z m 583 733 l 492 972 l 364 972 l 551 733 z "},"x":{"ha":658,"x_min":0,"x_max":0,"o":"m 171 664 l 40 664 l 276 321 l 28 0 l 76 0 l 300 288 l 499 0 l 629 0 l 382 357 l 622 664 l 572 664 l 358 392 z "},"y":{"ha":744,"x_min":0,"x_max":0,"o":"m 100 664 l 100 215 b 325 -12 100 46 210 -12 b 525 92 418 -12 493 31 l 525 13 b 308 -251 525 -164 442 -251 b 89 -178 229 -251 143 -221 l 69 -204 b 342 -304 119 -246 211 -304 b 644 35 529 -304 644 -189 l 644 664 l 525 664 l 525 232 b 354 31 525 86 436 31 b 219 228 260 31 219 104 l 219 664 z "},"ý":{"ha":775,"x_min":0,"x_max":0,"o":"m 131 664 l 131 215 b 356 -12 131 46 240 -12 b 556 92 449 -12 524 31 l 556 13 b 339 -251 556 -164 472 -251 b 119 -178 260 -251 174 -221 l 100 -204 b 372 -304 150 -246 242 -304 b 675 35 560 -304 675 -189 l 675 664 l 556 664 l 556 232 b 385 31 556 86 467 31 b 250 228 290 31 250 104 l 250 664 z m 397 733 l 586 972 l 458 972 l 367 733 z "},"ŷ":{"ha":775,"x_min":0,"x_max":0,"o":"m 131 664 l 131 215 b 356 -12 131 46 240 -12 b 556 92 449 -12 524 31 l 556 13 b 339 -251 556 -164 472 -251 b 119 -178 260 -251 174 -221 l 100 -204 b 372 -304 150 -246 242 -304 b 675 35 560 -304 675 -189 l 675 664 l 556 664 l 556 232 b 385 31 556 86 467 31 b 250 228 290 31 250 104 l 250 664 z m 363 972 l 192 733 l 224 733 l 403 896 l 582 733 l 615 733 l 444 972 z "},"ÿ":{"ha":775,"x_min":0,"x_max":0,"o":"m 131 664 l 131 215 b 356 -12 131 46 240 -12 b 556 92 449 -12 524 31 l 556 13 b 339 -251 556 -164 472 -251 b 119 -178 260 -251 174 -221 l 100 -204 b 372 -304 150 -246 242 -304 b 675 35 560 -304 675 -189 l 675 664 l 556 664 l 556 232 b 385 31 556 86 467 31 b 250 228 290 31 250 104 l 250 664 z m 210 854 b 278 788 210 817 233 788 b 346 854 321 788 346 817 b 278 925 346 893 321 925 b 210 854 233 925 210 893 z m 453 854 b 521 788 453 817 476 788 b 588 854 564 788 588 817 b 521 925 588 893 564 925 b 453 854 476 925 453 893 z "},"¥":{"ha":851,"x_min":0,"x_max":0,"o":"m 763 494 l 763 538 l 574 538 l 808 972 l 753 972 l 468 446 l 185 972 l 46 972 l 286 538 l 106 538 l 106 494 l 310 494 l 367 393 l 106 393 l 106 350 l 372 350 l 372 0 l 500 0 l 500 350 l 763 350 l 763 393 l 500 393 l 500 400 l 550 494 z "},"ỳ":{"ha":775,"x_min":0,"x_max":0,"o":"m 131 664 l 131 215 b 356 -12 131 46 240 -12 b 556 92 449 -12 524 31 l 556 13 b 339 -251 556 -164 472 -251 b 119 -178 260 -251 174 -221 l 100 -204 b 372 -304 150 -246 242 -304 b 675 35 560 -304 675 -189 l 675 664 l 556 664 l 556 232 b 385 31 556 86 467 31 b 250 228 290 31 250 104 l 250 664 z m 438 733 l 346 972 l 218 972 l 406 733 z "},"z":{"ha":643,"x_min":0,"x_max":0,"o":"m 47 22 l 47 0 l 590 0 l 590 42 l 190 42 l 574 642 l 574 664 l 72 664 l 72 622 l 428 622 z "},"ź":{"ha":643,"x_min":0,"x_max":0,"o":"m 47 22 l 47 0 l 590 0 l 590 42 l 190 42 l 574 642 l 574 664 l 72 664 l 72 622 l 428 622 z m 317 733 l 506 972 l 378 972 l 286 733 z "},"ž":{"ha":643,"x_min":0,"x_max":0,"o":"m 47 22 l 47 0 l 590 0 l 590 42 l 190 42 l 574 642 l 574 664 l 72 664 l 72 622 l 428 622 z m 363 735 l 533 974 l 500 974 l 321 815 l 142 974 l 110 974 l 281 735 z "},"ż":{"ha":643,"x_min":0,"x_max":0,"o":"m 47 22 l 47 0 l 590 0 l 590 42 l 190 42 l 574 642 l 574 664 l 72 664 l 72 622 l 428 622 z m 254 861 b 321 799 254 825 278 799 b 388 861 364 799 388 825 b 321 931 388 899 365 931 b 254 861 278 931 254 899 z "},"₀":{"ha":613,"x_min":0,"x_max":0,"o":"m 546 39 b 307 383 546 229 472 383 b 68 39 142 383 68 229 b 307 -315 68 -151 142 -315 b 546 39 472 -315 546 -151 z m 183 40 b 307 350 183 194 218 350 b 432 39 396 350 432 193 b 307 -281 432 -121 396 -281 b 183 40 219 -281 183 -121 z "},"":{"ha":813,"x_min":0,"x_max":0,"o":"m 746 340 b 407 679 746 528 635 679 b 67 340 179 679 67 528 b 407 -10 67 151 179 -10 b 746 340 635 -10 746 151 z m 197 340 b 407 644 197 492 258 644 b 614 340 554 644 614 490 b 407 26 614 182 553 26 b 197 340 261 26 197 183 z "},"⁰":{"ha":613,"x_min":0,"x_max":0,"o":"m 546 650 b 307 994 546 840 472 994 b 68 650 142 994 68 840 b 307 296 68 460 142 296 b 546 650 472 296 546 460 z m 183 651 b 307 961 183 806 218 961 b 432 650 396 961 432 804 b 307 331 432 490 396 331 b 183 651 219 331 183 490 z "},"Ẃ":{"ha":1250,"x_min":0,"x_max":0,"o":"m 592 972 l 376 90 l 172 972 l 38 972 l 278 0 l 407 0 l 624 871 l 836 0 l 965 0 l 1210 972 l 1151 972 l 932 90 l 721 972 z m 647 1042 l 836 1281 l 708 1281 l 617 1042 z "},"Ŵ":{"ha":1250,"x_min":0,"x_max":0,"o":"m 592 972 l 376 90 l 172 972 l 38 972 l 278 0 l 407 0 l 624 871 l 836 0 l 965 0 l 1210 972 l 1151 972 l 932 90 l 721 972 z m 617 1279 l 446 1040 l 478 1040 l 657 1203 l 836 1040 l 869 1040 l 699 1279 z "},"Ẅ":{"ha":1250,"x_min":0,"x_max":0,"o":"m 592 972 l 376 90 l 172 972 l 38 972 l 278 0 l 407 0 l 624 871 l 836 0 l 965 0 l 1210 972 l 1151 972 l 932 90 l 721 972 z m 465 1108 b 533 1042 465 1071 489 1042 b 601 1108 576 1042 601 1071 b 533 1179 601 1147 576 1179 b 465 1108 489 1179 465 1147 z m 708 1108 b 776 1042 708 1071 732 1042 b 843 1108 819 1042 843 1071 b 776 1179 843 1147 819 1179 b 708 1108 732 1179 708 1147 z "},"Ẁ":{"ha":1250,"x_min":0,"x_max":0,"o":"m 592 972 l 376 90 l 172 972 l 38 972 l 278 0 l 407 0 l 624 871 l 836 0 l 965 0 l 1210 972 l 1151 972 l 932 90 l 721 972 z m 689 1042 l 597 1281 l 469 1281 l 657 1042 z "},"ĳ":{"ha":668,"x_min":0,"x_max":0,"o":"m 89 0 l 208 0 l 208 664 l 89 664 z m 78 886 b 153 815 78 844 110 815 b 226 886 196 815 226 844 b 153 960 226 931 196 960 b 78 886 110 960 78 931 z m 447 886 b 522 815 447 844 479 815 b 596 886 565 815 596 844 b 522 960 596 931 565 960 b 447 886 479 960 447 931 z m 292 -306 b 581 53 461 -272 581 -160 l 581 664 l 461 664 l 461 44 b 285 -276 461 -164 421 -240 z "},"…":{"ha":963,"x_min":0,"x_max":0,"o":"m 83 61 b 160 -14 83 15 111 -14 b 238 61 208 -14 238 15 b 160 139 238 106 208 139 b 83 61 111 139 83 106 z m 404 61 b 481 -14 404 15 432 -14 b 558 61 529 -14 558 15 b 481 139 558 106 529 139 b 404 61 432 139 404 106 z m 725 61 b 801 -14 725 15 753 -14 b 879 61 850 -14 879 15 b 801 139 879 106 850 139 b 725 61 753 139 725 106 z "},"÷":{"ha":736,"x_min":0,"x_max":0,"o":"m 293 614 b 369 539 293 568 321 539 b 447 614 418 539 447 568 b 369 692 447 657 418 692 b 293 614 321 692 293 657 z m 293 61 b 369 -14 293 15 321 -14 b 447 61 418 -14 447 15 b 369 139 447 106 418 139 b 293 61 321 139 293 106 z m 708 321 l 708 394 l 29 394 l 29 321 z "},"Ħ":{"ha":953,"x_min":0,"x_max":0,"o":"m 0 747 l 129 747 l 129 0 l 257 0 l 257 481 l 696 481 l 696 0 l 825 0 l 825 747 l 953 747 l 953 789 l 825 789 l 825 972 l 696 972 l 696 789 l 257 789 l 257 972 l 129 972 l 129 789 l 0 789 z m 257 526 l 257 747 l 696 747 l 696 526 z "},"Ś":{"ha":707,"x_min":0,"x_max":0,"o":"m 376 936 b 590 847 463 936 532 904 l 614 869 b 369 985 557 929 486 985 b 86 740 192 985 86 892 b 539 217 86 443 539 489 b 336 38 539 111 458 38 b 69 156 224 38 125 99 l 47 132 b 356 -14 107 67 207 -14 b 644 249 510 -14 644 81 b 194 768 644 594 194 539 b 376 936 194 874 268 936 z m 363 1042 l 551 1281 l 424 1281 l 332 1042 z "},"Š":{"ha":707,"x_min":0,"x_max":0,"o":"m 376 936 b 590 847 463 936 532 904 l 614 869 b 369 985 557 929 486 985 b 86 740 192 985 86 892 b 539 217 86 443 539 489 b 336 38 539 111 458 38 b 69 156 224 38 125 99 l 47 132 b 356 -14 107 67 207 -14 b 644 249 510 -14 644 81 b 194 768 644 594 194 539 b 376 936 194 874 268 936 z m 411 1042 l 582 1281 l 549 1281 l 369 1122 l 190 1281 l 158 1281 l 329 1042 z "},"Ş":{"ha":707,"x_min":0,"x_max":0,"o":"m 314 -133 l 356 -133 b 436 -206 403 -133 436 -154 b 349 -279 436 -256 401 -279 b 249 -256 311 -279 276 -268 l 239 -289 b 371 -319 264 -301 308 -319 b 528 -200 474 -319 528 -281 b 396 -93 528 -122 463 -93 b 365 -94 383 -93 371 -93 l 393 -11 b 644 249 531 3 644 94 b 194 768 644 594 194 539 b 376 936 194 874 268 936 b 590 847 463 936 532 904 l 614 869 b 369 985 557 929 486 985 b 86 740 192 985 86 892 b 539 217 86 443 539 489 b 336 38 539 111 458 38 b 69 156 224 38 125 99 l 47 132 b 353 -14 106 67 206 -12 z "},"Ú":{"ha":918,"x_min":0,"x_max":0,"o":"m 739 354 b 494 61 739 182 672 61 b 242 354 317 61 242 182 l 242 972 l 119 972 l 119 346 b 458 -12 119 110 242 -12 b 799 346 675 -12 799 110 l 799 972 l 739 972 z m 463 1042 l 651 1281 l 524 1281 l 432 1042 z "},"Ŭ":{"ha":918,"x_min":0,"x_max":0,"o":"m 739 354 b 494 61 739 182 672 61 b 242 354 317 61 242 182 l 242 972 l 119 972 l 119 346 b 458 -12 119 110 242 -12 b 799 346 675 -12 799 110 l 799 972 l 739 972 z m 603 1231 b 469 1119 603 1165 564 1119 b 336 1231 374 1119 336 1172 l 308 1231 b 469 1049 308 1118 364 1049 b 631 1231 575 1049 631 1118 z "},"Û":{"ha":918,"x_min":0,"x_max":0,"o":"m 739 354 b 494 61 739 182 672 61 b 242 354 317 61 242 182 l 242 972 l 119 972 l 119 346 b 458 -12 119 110 242 -12 b 799 346 675 -12 799 110 l 799 972 l 739 972 z m 431 1279 l 260 1040 l 292 1040 l 471 1203 l 650 1040 l 683 1040 l 513 1279 z "},"Ü":{"ha":918,"x_min":0,"x_max":0,"o":"m 739 354 b 494 61 739 182 672 61 b 242 354 317 61 242 182 l 242 972 l 119 972 l 119 346 b 458 -12 119 110 242 -12 b 799 346 675 -12 799 110 l 799 972 l 739 972 z m 281 1108 b 349 1042 281 1071 304 1042 b 417 1108 392 1042 417 1071 b 349 1179 417 1147 392 1179 b 281 1108 304 1179 281 1147 z m 524 1108 b 592 1042 524 1071 547 1042 b 658 1108 635 1042 658 1071 b 592 1179 658 1147 635 1179 b 524 1108 547 1179 524 1147 z "},"Ù":{"ha":918,"x_min":0,"x_max":0,"o":"m 739 354 b 494 61 739 182 672 61 b 242 354 317 61 242 182 l 242 972 l 119 972 l 119 346 b 458 -12 119 110 242 -12 b 799 346 675 -12 799 110 l 799 972 l 739 972 z m 504 1042 l 413 1281 l 285 1281 l 472 1042 z "},"Ű":{"ha":918,"x_min":0,"x_max":0,"o":"m 739 354 b 494 61 739 182 672 61 b 242 354 317 61 242 182 l 242 972 l 119 972 l 119 346 b 458 -12 119 110 242 -12 b 799 346 675 -12 799 110 l 799 972 l 739 972 z m 376 1040 l 578 1279 l 444 1279 l 344 1040 z m 586 1040 l 789 1279 l 654 1279 l 556 1040 z "},"Ū":{"ha":918,"x_min":0,"x_max":0,"o":"m 739 354 b 494 61 739 182 672 61 b 242 354 317 61 242 182 l 242 972 l 119 972 l 119 346 b 458 -12 119 110 242 -12 b 799 346 675 -12 799 110 l 799 972 l 739 972 z m 293 1044 l 646 1044 l 646 1086 l 293 1086 z "},"Ũ":{"ha":918,"x_min":0,"x_max":0,"o":"m 739 354 b 494 61 739 182 672 61 b 242 354 317 61 242 182 l 242 972 l 119 972 l 119 346 b 458 -12 119 110 242 -12 b 799 346 675 -12 799 110 l 799 972 l 739 972 z m 617 1186 b 578 1117 617 1131 603 1117 b 372 1186 528 1117 442 1186 b 289 1042 313 1186 289 1136 l 318 1042 b 364 1111 318 1092 338 1111 b 571 1042 410 1111 508 1042 b 647 1186 624 1042 647 1083 z "},"Ů":{"ha":918,"x_min":0,"x_max":0,"o":"m 739 354 b 494 61 739 182 672 61 b 242 354 317 61 242 182 l 242 972 l 119 972 l 119 346 b 458 -12 119 110 242 -12 b 799 346 675 -12 799 110 l 799 972 l 739 972 z m 639 1161 b 469 1278 639 1225 586 1278 b 301 1161 354 1278 301 1226 b 469 1038 301 1092 354 1038 b 639 1161 586 1038 639 1092 z m 392 1161 b 469 1249 392 1214 419 1249 b 549 1161 518 1249 549 1214 b 469 1068 549 1106 518 1068 b 392 1161 419 1068 392 1106 z "},"\u0000":{"ha":0,"x_min":0,"x_max":0,"o":""},"\r":{"ha":331,"x_min":0,"x_max":0,"o":""},"A":{"ha":801,"x_min":0,"x_max":0,"o":"m 665 0 l 799 0 l 463 972 l 353 972 l 3 0 l 58 0 l 164 296 l 564 296 z m 368 869 l 547 346 l 182 346 z "}}}
